<?xml version="1.0" encoding="UTF-8" standalone="no"?>
<!DOCTYPE svg PUBLIC "-//W3C//DTD SVG 1.1//EN"
 "http://www.w3.org/Graphics/SVG/1.1/DTD/svg11.dtd">
<!-- Generated by graphviz version 2.32.0 (20131209.0031)
 -->
<!-- Title: controllers_diagram Pages: 1 -->
<svg width="1300pt" height="1046pt"
 viewBox="0.00 0.00 1299.96 1046.39" xmlns="http://www.w3.org/2000/svg" xmlns:xlink="http://www.w3.org/1999/xlink">
<g id="graph0" class="graph" transform="scale(1 1) rotate(0) translate(4 1042.39)">
<title>controllers_diagram</title>
<polygon fill="white" stroke="white" points="-4,5 -4,-1042.39 1296.96,-1042.39 1296.96,5 -4,5"/>
<!-- _diagram_info -->
<g id="node1" class="node"><title>_diagram_info</title>
<text text-anchor="start" x="862" y="-618" font-family="Times,serif" font-size="13.00">Controllers diagram</text>
<text text-anchor="start" x="862" y="-602.4" font-family="Times,serif" font-size="13.00">Date: Dec 08 2013 &#45; 16:32</text>
<text text-anchor="start" x="862" y="-586.8" font-family="Times,serif" font-size="13.00">Migration version: 20131208164507</text>
<text text-anchor="start" x="862" y="-571.2" font-family="Times,serif" font-size="13.00">Generated by RailRoady 1.1.1</text>
<text text-anchor="start" x="862" y="-555.6" font-family="Times,serif" font-size="13.00">http://railroady.prestonlee.com</text>
</g>
<!-- ApplicationController -->
<g id="node2" class="node"><title>ApplicationController</title>
<path fill="none" stroke="black" d="M310.779,-520.607C310.779,-520.607 489.414,-520.607 489.414,-520.607 495.414,-520.607 501.414,-526.607 501.414,-532.607 501.414,-532.607 501.414,-658.207 501.414,-658.207 501.414,-664.207 495.414,-670.207 489.414,-670.207 489.414,-670.207 310.779,-670.207 310.779,-670.207 304.779,-670.207 298.779,-664.207 298.779,-658.207 298.779,-658.207 298.779,-532.607 298.779,-532.607 298.779,-526.607 304.779,-520.607 310.779,-520.607"/>
<text text-anchor="middle" x="400.097" y="-652.207" font-family="Times,serif" font-size="14.00">ApplicationController</text>
<polyline fill="none" stroke="black" points="298.779,-645.407 501.414,-645.407 "/>
<text text-anchor="start" x="306.779" y="-627.407" font-family="Times,serif" font-size="14.00">_one_time_conditions_valid_76?</text>
<text text-anchor="start" x="306.779" y="-610.607" font-family="Times,serif" font-size="14.00">_one_time_conditions_valid_78?</text>
<polyline fill="none" stroke="black" points="298.779,-603.807 501.414,-603.807 "/>
<text text-anchor="start" x="306.779" y="-585.807" font-family="Times,serif" font-size="14.00">initialize_cart</text>
<text text-anchor="start" x="306.779" y="-569.007" font-family="Times,serif" font-size="14.00">user_logged_in</text>
<text text-anchor="start" x="306.779" y="-552.207" font-family="Times,serif" font-size="14.00">verify_if_admin</text>
<polyline fill="none" stroke="black" points="298.779,-545.407 501.414,-545.407 "/>
<text text-anchor="start" x="306.779" y="-527.407" font-family="Times,serif" font-size="14.00">_layout</text>
</g>
<!-- CartController -->
<g id="node3" class="node"><title>CartController</title>
<path fill="none" stroke="black" d="M668.249,-587.539C668.249,-587.539 741.898,-587.539 741.898,-587.539 747.898,-587.539 753.898,-593.539 753.898,-599.539 753.898,-599.539 753.898,-707.539 753.898,-707.539 753.898,-713.539 747.898,-719.539 741.898,-719.539 741.898,-719.539 668.249,-719.539 668.249,-719.539 662.249,-719.539 656.249,-713.539 656.249,-707.539 656.249,-707.539 656.249,-599.539 656.249,-599.539 656.249,-593.539 662.249,-587.539 668.249,-587.539"/>
<text text-anchor="middle" x="705.074" y="-701.539" font-family="Times,serif" font-size="14.00">CartController</text>
<polyline fill="none" stroke="black" points="656.249,-694.739 753.898,-694.739 "/>
<text text-anchor="start" x="664.249" y="-676.739" font-family="Times,serif" font-size="14.00">cart</text>
<text text-anchor="start" x="664.249" y="-659.939" font-family="Times,serif" font-size="14.00">pay</text>
<polyline fill="none" stroke="black" points="656.249,-653.139 753.898,-653.139 "/>
<polyline fill="none" stroke="black" points="656.249,-629.139 753.898,-629.139 "/>
<text text-anchor="start" x="664.249" y="-611.139" font-family="Times,serif" font-size="14.00">_layout</text>
<text text-anchor="start" x="664.249" y="-594.339" font-family="Times,serif" font-size="14.00">clearCart</text>
</g>
<!-- ApplicationController&#45;&gt;CartController -->
<g id="edge1" class="edge"><title>ApplicationController&#45;&gt;CartController</title>
<path fill="none" stroke="black" d="M501.65,-614.764C553.633,-624.673 614.538,-636.282 656.063,-644.197"/>
</g>
<!-- CreditCardsController -->
<g id="node4" class="node"><title>CreditCardsController</title>
<path fill="none" stroke="black" d="M270.733,-235.98C270.733,-235.98 449.367,-235.98 449.367,-235.98 455.367,-235.98 461.367,-241.98 461.367,-247.98 461.367,-247.98 461.367,-456.78 461.367,-456.78 461.367,-462.78 455.367,-468.78 449.367,-468.78 449.367,-468.78 270.733,-468.78 270.733,-468.78 264.733,-468.78 258.733,-462.78 258.733,-456.78 258.733,-456.78 258.733,-247.98 258.733,-247.98 258.733,-241.98 264.733,-235.98 270.733,-235.98"/>
<text text-anchor="middle" x="360.05" y="-450.78" font-family="Times,serif" font-size="14.00">CreditCardsController</text>
<polyline fill="none" stroke="black" points="258.733,-443.98 461.367,-443.98 "/>
<text text-anchor="start" x="266.733" y="-425.98" font-family="Times,serif" font-size="14.00">_one_time_conditions_valid_84?</text>
<text text-anchor="start" x="266.733" y="-409.18" font-family="Times,serif" font-size="14.00">changeCreditCard</text>
<text text-anchor="start" x="266.733" y="-392.38" font-family="Times,serif" font-size="14.00">create</text>
<text text-anchor="start" x="266.733" y="-375.58" font-family="Times,serif" font-size="14.00">creditCardSelection</text>
<text text-anchor="start" x="266.733" y="-358.78" font-family="Times,serif" font-size="14.00">destroy</text>
<text text-anchor="start" x="266.733" y="-341.98" font-family="Times,serif" font-size="14.00">index</text>
<text text-anchor="start" x="266.733" y="-325.18" font-family="Times,serif" font-size="14.00">new</text>
<text text-anchor="start" x="266.733" y="-308.38" font-family="Times,serif" font-size="14.00">setDefault</text>
<text text-anchor="start" x="266.733" y="-291.58" font-family="Times,serif" font-size="14.00">useNewCreditCard</text>
<polyline fill="none" stroke="black" points="258.733,-284.78 461.367,-284.78 "/>
<polyline fill="none" stroke="black" points="258.733,-260.78 461.367,-260.78 "/>
<text text-anchor="start" x="266.733" y="-242.78" font-family="Times,serif" font-size="14.00">_layout</text>
</g>
<!-- ApplicationController&#45;&gt;CreditCardsController -->
<g id="edge2" class="edge"><title>ApplicationController&#45;&gt;CreditCardsController</title>
<path fill="none" stroke="black" d="M387.754,-520.508C385.066,-504.19 382.159,-486.551 379.274,-469.045"/>
</g>
<!-- DeliveryAreasController -->
<g id="node5" class="node"><title>DeliveryAreasController</title>
<path fill="none" stroke="black" d="M22.0264,-821.895C22.0264,-821.895 153.199,-821.895 153.199,-821.895 159.199,-821.895 165.199,-827.895 165.199,-833.895 165.199,-833.895 165.199,-1025.89 165.199,-1025.89 165.199,-1031.89 159.199,-1037.89 153.199,-1037.89 153.199,-1037.89 22.0264,-1037.89 22.0264,-1037.89 16.0264,-1037.89 10.0264,-1031.89 10.0264,-1025.89 10.0264,-1025.89 10.0264,-833.895 10.0264,-833.895 10.0264,-827.895 16.0264,-821.895 22.0264,-821.895"/>
<text text-anchor="middle" x="87.6129" y="-1019.89" font-family="Times,serif" font-size="14.00">DeliveryAreasController</text>
<polyline fill="none" stroke="black" points="10.0264,-1013.09 165.199,-1013.09 "/>
<text text-anchor="start" x="18.0264" y="-995.095" font-family="Times,serif" font-size="14.00">create</text>
<text text-anchor="start" x="18.0264" y="-978.295" font-family="Times,serif" font-size="14.00">destroy</text>
<text text-anchor="start" x="18.0264" y="-961.495" font-family="Times,serif" font-size="14.00">edit</text>
<text text-anchor="start" x="18.0264" y="-944.695" font-family="Times,serif" font-size="14.00">index</text>
<text text-anchor="start" x="18.0264" y="-927.895" font-family="Times,serif" font-size="14.00">menu</text>
<text text-anchor="start" x="18.0264" y="-911.095" font-family="Times,serif" font-size="14.00">new</text>
<text text-anchor="start" x="18.0264" y="-894.295" font-family="Times,serif" font-size="14.00">show</text>
<text text-anchor="start" x="18.0264" y="-877.495" font-family="Times,serif" font-size="14.00">update</text>
<polyline fill="none" stroke="black" points="10.0264,-870.695 165.199,-870.695 "/>
<polyline fill="none" stroke="black" points="10.0264,-846.695 165.199,-846.695 "/>
<text text-anchor="start" x="18.0264" y="-828.695" font-family="Times,serif" font-size="14.00">_layout</text>
</g>
<!-- ApplicationController&#45;&gt;DeliveryAreasController -->
<g id="edge3" class="edge"><title>ApplicationController&#45;&gt;DeliveryAreasController</title>
<path fill="none" stroke="black" d="M329.969,-670.473C281.115,-722.767 215.925,-792.548 165.461,-846.565"/>
</g>
<!-- DeliveryPointsController -->
<g id="node6" class="node"><title>DeliveryPointsController</title>
<path fill="none" stroke="black" d="M633.134,-830.884C633.134,-830.884 766.672,-830.884 766.672,-830.884 772.672,-830.884 778.672,-836.884 778.672,-842.884 778.672,-842.884 778.672,-1018.08 778.672,-1018.08 778.672,-1024.08 772.672,-1030.08 766.672,-1030.08 766.672,-1030.08 633.134,-1030.08 633.134,-1030.08 627.134,-1030.08 621.134,-1024.08 621.134,-1018.08 621.134,-1018.08 621.134,-842.884 621.134,-842.884 621.134,-836.884 627.134,-830.884 633.134,-830.884"/>
<text text-anchor="middle" x="699.903" y="-1012.08" font-family="Times,serif" font-size="14.00">DeliveryPointsController</text>
<polyline fill="none" stroke="black" points="621.134,-1005.28 778.672,-1005.28 "/>
<text text-anchor="start" x="629.134" y="-987.284" font-family="Times,serif" font-size="14.00">create</text>
<text text-anchor="start" x="629.134" y="-970.484" font-family="Times,serif" font-size="14.00">destroy</text>
<text text-anchor="start" x="629.134" y="-953.684" font-family="Times,serif" font-size="14.00">edit</text>
<text text-anchor="start" x="629.134" y="-936.884" font-family="Times,serif" font-size="14.00">index</text>
<text text-anchor="start" x="629.134" y="-920.084" font-family="Times,serif" font-size="14.00">new</text>
<text text-anchor="start" x="629.134" y="-903.284" font-family="Times,serif" font-size="14.00">show</text>
<text text-anchor="start" x="629.134" y="-886.484" font-family="Times,serif" font-size="14.00">update</text>
<polyline fill="none" stroke="black" points="621.134,-879.684 778.672,-879.684 "/>
<polyline fill="none" stroke="black" points="621.134,-855.684 778.672,-855.684 "/>
<text text-anchor="start" x="629.134" y="-837.684" font-family="Times,serif" font-size="14.00">_layout</text>
</g>
<!-- ApplicationController&#45;&gt;DeliveryPointsController -->
<g id="edge4" class="edge"><title>ApplicationController&#45;&gt;DeliveryPointsController</title>
<path fill="none" stroke="black" d="M467.379,-670.605C512.87,-721.448 573.124,-788.791 620.897,-842.184"/>
</g>
<!-- IngredientsController -->
<g id="node7" class="node"><title>IngredientsController</title>
<path fill="none" stroke="black" d="M337.963,-800.928C337.963,-800.928 450.488,-800.928 450.488,-800.928 456.488,-800.928 462.488,-806.928 462.488,-812.928 462.488,-812.928 462.488,-988.128 462.488,-988.128 462.488,-994.128 456.488,-1000.13 450.488,-1000.13 450.488,-1000.13 337.963,-1000.13 337.963,-1000.13 331.963,-1000.13 325.963,-994.128 325.963,-988.128 325.963,-988.128 325.963,-812.928 325.963,-812.928 325.963,-806.928 331.963,-800.928 337.963,-800.928"/>
<text text-anchor="middle" x="394.226" y="-982.128" font-family="Times,serif" font-size="14.00">IngredientsController</text>
<polyline fill="none" stroke="black" points="325.963,-975.328 462.488,-975.328 "/>
<text text-anchor="start" x="333.963" y="-957.328" font-family="Times,serif" font-size="14.00">create</text>
<text text-anchor="start" x="333.963" y="-940.528" font-family="Times,serif" font-size="14.00">destroy</text>
<text text-anchor="start" x="333.963" y="-923.728" font-family="Times,serif" font-size="14.00">edit</text>
<text text-anchor="start" x="333.963" y="-906.928" font-family="Times,serif" font-size="14.00">index</text>
<text text-anchor="start" x="333.963" y="-890.128" font-family="Times,serif" font-size="14.00">new</text>
<text text-anchor="start" x="333.963" y="-873.328" font-family="Times,serif" font-size="14.00">show</text>
<text text-anchor="start" x="333.963" y="-856.528" font-family="Times,serif" font-size="14.00">update</text>
<polyline fill="none" stroke="black" points="325.963,-849.728 462.488,-849.728 "/>
<polyline fill="none" stroke="black" points="325.963,-825.728 462.488,-825.728 "/>
<text text-anchor="start" x="333.963" y="-807.728" font-family="Times,serif" font-size="14.00">_layout</text>
</g>
<!-- ApplicationController&#45;&gt;IngredientsController -->
<g id="edge5" class="edge"><title>ApplicationController&#45;&gt;IngredientsController</title>
<path fill="none" stroke="black" d="M398.653,-670.439C397.897,-709.699 396.963,-758.29 396.147,-800.686"/>
</g>
<!-- ItemsController -->
<g id="node8" class="node"><title>ItemsController</title>
<path fill="none" stroke="black" d="M12,-272.853C12,-272.853 126.076,-272.853 126.076,-272.853 132.076,-272.853 138.076,-278.853 138.076,-284.853 138.076,-284.853 138.076,-527.253 138.076,-527.253 138.076,-533.253 132.076,-539.253 126.076,-539.253 126.076,-539.253 12,-539.253 12,-539.253 6,-539.253 0,-533.253 0,-527.253 0,-527.253 0,-284.853 0,-284.853 0,-278.853 6,-272.853 12,-272.853"/>
<text text-anchor="middle" x="69.0381" y="-521.253" font-family="Times,serif" font-size="14.00">ItemsController</text>
<polyline fill="none" stroke="black" points="0,-514.453 138.076,-514.453 "/>
<text text-anchor="start" x="8" y="-496.453" font-family="Times,serif" font-size="14.00">addItemToCart</text>
<text text-anchor="start" x="8" y="-479.653" font-family="Times,serif" font-size="14.00">create</text>
<text text-anchor="start" x="8" y="-462.853" font-family="Times,serif" font-size="14.00">destroy</text>
<text text-anchor="start" x="8" y="-446.053" font-family="Times,serif" font-size="14.00">edit</text>
<text text-anchor="start" x="8" y="-429.253" font-family="Times,serif" font-size="14.00">getOldQuantity</text>
<text text-anchor="start" x="8" y="-412.453" font-family="Times,serif" font-size="14.00">index</text>
<text text-anchor="start" x="8" y="-395.653" font-family="Times,serif" font-size="14.00">minusItemFromCart</text>
<text text-anchor="start" x="8" y="-378.853" font-family="Times,serif" font-size="14.00">new</text>
<text text-anchor="start" x="8" y="-362.053" font-family="Times,serif" font-size="14.00">removeItemFromCart</text>
<text text-anchor="start" x="8" y="-345.253" font-family="Times,serif" font-size="14.00">show</text>
<text text-anchor="start" x="8" y="-328.453" font-family="Times,serif" font-size="14.00">update</text>
<polyline fill="none" stroke="black" points="0,-321.653 138.076,-321.653 "/>
<polyline fill="none" stroke="black" points="0,-297.653 138.076,-297.653 "/>
<text text-anchor="start" x="8" y="-279.653" font-family="Times,serif" font-size="14.00">_layout</text>
</g>
<!-- ApplicationController&#45;&gt;ItemsController -->
<g id="edge6" class="edge"><title>ApplicationController&#45;&gt;ItemsController</title>
<path fill="none" stroke="black" d="M298.518,-537.308C246.534,-507.575 184.606,-472.154 138.191,-445.606"/>
</g>
<!-- MainController -->
<g id="node9" class="node"><title>MainController</title>
<path fill="none" stroke="black" d="M647.76,-347.857C647.76,-347.857 726.857,-347.857 726.857,-347.857 732.857,-347.857 738.857,-353.857 738.857,-359.857 738.857,-359.857 738.857,-451.057 738.857,-451.057 738.857,-457.057 732.857,-463.057 726.857,-463.057 726.857,-463.057 647.76,-463.057 647.76,-463.057 641.76,-463.057 635.76,-457.057 635.76,-451.057 635.76,-451.057 635.76,-359.857 635.76,-359.857 635.76,-353.857 641.76,-347.857 647.76,-347.857"/>
<text text-anchor="middle" x="687.308" y="-445.057" font-family="Times,serif" font-size="14.00">MainController</text>
<polyline fill="none" stroke="black" points="635.76,-438.257 738.857,-438.257 "/>
<text text-anchor="start" x="643.76" y="-420.257" font-family="Times,serif" font-size="14.00">goToMenu</text>
<text text-anchor="start" x="643.76" y="-403.457" font-family="Times,serif" font-size="14.00">home</text>
<polyline fill="none" stroke="black" points="635.76,-396.657 738.857,-396.657 "/>
<polyline fill="none" stroke="black" points="635.76,-372.657 738.857,-372.657 "/>
<text text-anchor="start" x="643.76" y="-354.657" font-family="Times,serif" font-size="14.00">_layout</text>
</g>
<!-- ApplicationController&#45;&gt;MainController -->
<g id="edge7" class="edge"><title>ApplicationController&#45;&gt;MainController</title>
<path fill="none" stroke="black" d="M501.761,-528.17C546.945,-498.288 598.201,-464.389 635.374,-439.804"/>
</g>
<!-- MenusController -->
<g id="node10" class="node"><title>MenusController</title>
<path fill="none" stroke="black" d="M50.2684,-15.6176C50.2684,-15.6176 137.924,-15.6176 137.924,-15.6176 143.924,-15.6176 149.924,-21.6176 149.924,-27.6176 149.924,-27.6176 149.924,-202.818 149.924,-202.818 149.924,-208.818 143.924,-214.818 137.924,-214.818 137.924,-214.818 50.2684,-214.818 50.2684,-214.818 44.2684,-214.818 38.2684,-208.818 38.2684,-202.818 38.2684,-202.818 38.2684,-27.6176 38.2684,-27.6176 38.2684,-21.6176 44.2684,-15.6176 50.2684,-15.6176"/>
<text text-anchor="middle" x="94.096" y="-196.818" font-family="Times,serif" font-size="14.00">MenusController</text>
<polyline fill="none" stroke="black" points="38.2684,-190.018 149.924,-190.018 "/>
<text text-anchor="start" x="46.2684" y="-172.018" font-family="Times,serif" font-size="14.00">create</text>
<text text-anchor="start" x="46.2684" y="-155.218" font-family="Times,serif" font-size="14.00">destroy</text>
<text text-anchor="start" x="46.2684" y="-138.418" font-family="Times,serif" font-size="14.00">edit</text>
<text text-anchor="start" x="46.2684" y="-121.618" font-family="Times,serif" font-size="14.00">index</text>
<text text-anchor="start" x="46.2684" y="-104.818" font-family="Times,serif" font-size="14.00">new</text>
<text text-anchor="start" x="46.2684" y="-88.0176" font-family="Times,serif" font-size="14.00">show</text>
<text text-anchor="start" x="46.2684" y="-71.2176" font-family="Times,serif" font-size="14.00">update</text>
<polyline fill="none" stroke="black" points="38.2684,-64.4176 149.924,-64.4176 "/>
<polyline fill="none" stroke="black" points="38.2684,-40.4176 149.924,-40.4176 "/>
<text text-anchor="start" x="46.2684" y="-22.4176" font-family="Times,serif" font-size="14.00">_layout</text>
</g>
<!-- ApplicationController&#45;&gt;MenusController -->
<g id="edge8" class="edge"><title>ApplicationController&#45;&gt;MenusController</title>
<path fill="none" stroke="black" d="M300.282,-520.446C284.084,-505.524 268.421,-489.127 255.533,-471.98 196.612,-393.586 152.836,-290.264 125.844,-214.998"/>
</g>
<!-- OrdersController -->
<g id="node11" class="node"><title>OrdersController</title>
<path fill="none" stroke="black" d="M379.304,-26.9492C379.304,-26.9492 466.946,-26.9492 466.946,-26.9492 472.946,-26.9492 478.946,-32.9492 478.946,-38.9492 478.946,-38.9492 478.946,-163.749 478.946,-163.749 478.946,-169.749 472.946,-175.749 466.946,-175.749 466.946,-175.749 379.304,-175.749 379.304,-175.749 373.304,-175.749 367.304,-169.749 367.304,-163.749 367.304,-163.749 367.304,-38.9492 367.304,-38.9492 367.304,-32.9492 373.304,-26.9492 379.304,-26.9492"/>
<text text-anchor="middle" x="423.125" y="-157.749" font-family="Times,serif" font-size="14.00">OrdersController</text>
<polyline fill="none" stroke="black" points="367.304,-150.949 478.946,-150.949 "/>
<text text-anchor="start" x="375.304" y="-132.949" font-family="Times,serif" font-size="14.00">index</text>
<text text-anchor="start" x="375.304" y="-116.149" font-family="Times,serif" font-size="14.00">receipt</text>
<text text-anchor="start" x="375.304" y="-99.3492" font-family="Times,serif" font-size="14.00">show</text>
<text text-anchor="start" x="375.304" y="-82.5492" font-family="Times,serif" font-size="14.00">user_orders</text>
<polyline fill="none" stroke="black" points="367.304,-75.7492 478.946,-75.7492 "/>
<polyline fill="none" stroke="black" points="367.304,-51.7492 478.946,-51.7492 "/>
<text text-anchor="start" x="375.304" y="-33.7492" font-family="Times,serif" font-size="14.00">_layout</text>
</g>
<!-- ApplicationController&#45;&gt;OrdersController -->
<g id="edge9" class="edge"><title>ApplicationController&#45;&gt;OrdersController</title>
<path fill="none" stroke="black" d="M446.515,-520.313C453.98,-504.852 460.562,-488.297 464.567,-471.98 489.908,-368.733 480.741,-337.853 464.567,-232.78 461.674,-213.981 456.581,-194.182 450.933,-175.819"/>
</g>
<!-- UsersController -->
<g id="node13" class="node"><title>UsersController</title>
<path fill="none" stroke="black" d="M626.46,-0.5C626.46,-0.5 812.095,-0.5 812.095,-0.5 818.095,-0.5 824.095,-6.5 824.095,-12.5 824.095,-12.5 824.095,-238.1 824.095,-238.1 824.095,-244.1 818.095,-250.1 812.095,-250.1 812.095,-250.1 626.46,-250.1 626.46,-250.1 620.46,-250.1 614.46,-244.1 614.46,-238.1 614.46,-238.1 614.46,-12.5 614.46,-12.5 614.46,-6.5 620.46,-0.5 626.46,-0.5"/>
<text text-anchor="middle" x="719.277" y="-232.1" font-family="Times,serif" font-size="14.00">UsersController</text>
<polyline fill="none" stroke="black" points="614.46,-225.3 824.095,-225.3 "/>
<text text-anchor="start" x="622.46" y="-207.3" font-family="Times,serif" font-size="14.00">_one_time_conditions_valid_220?</text>
<text text-anchor="start" x="622.46" y="-190.5" font-family="Times,serif" font-size="14.00">_one_time_conditions_valid_224?</text>
<text text-anchor="start" x="622.46" y="-173.7" font-family="Times,serif" font-size="14.00">account</text>
<text text-anchor="start" x="622.46" y="-156.9" font-family="Times,serif" font-size="14.00">create</text>
<text text-anchor="start" x="622.46" y="-140.1" font-family="Times,serif" font-size="14.00">destroy</text>
<text text-anchor="start" x="622.46" y="-123.3" font-family="Times,serif" font-size="14.00">edit</text>
<text text-anchor="start" x="622.46" y="-106.5" font-family="Times,serif" font-size="14.00">index</text>
<text text-anchor="start" x="622.46" y="-89.7" font-family="Times,serif" font-size="14.00">new</text>
<text text-anchor="start" x="622.46" y="-72.9" font-family="Times,serif" font-size="14.00">show</text>
<text text-anchor="start" x="622.46" y="-56.1" font-family="Times,serif" font-size="14.00">update</text>
<polyline fill="none" stroke="black" points="614.46,-49.3 824.095,-49.3 "/>
<polyline fill="none" stroke="black" points="614.46,-25.3 824.095,-25.3 "/>
<text text-anchor="start" x="622.46" y="-7.3" font-family="Times,serif" font-size="14.00">_layout</text>
</g>
<!-- ApplicationController&#45;&gt;UsersController -->
<g id="edge11" class="edge"><title>ApplicationController&#45;&gt;UsersController</title>
<path fill="none" stroke="black" d="M451.025,-520.397C500.305,-447.814 575.912,-336.456 634.312,-250.441"/>
</g>
<!-- VendorsController -->
<g id="node14" class="node"><title>VendorsController</title>
<path fill="none" stroke="black" d="M47.4277,-547.405C47.4277,-547.405 142.855,-547.405 142.855,-547.405 148.855,-547.405 154.855,-553.405 154.855,-559.405 154.855,-559.405 154.855,-751.405 154.855,-751.405 154.855,-757.405 148.855,-763.405 142.855,-763.405 142.855,-763.405 47.4277,-763.405 47.4277,-763.405 41.4277,-763.405 35.4277,-757.405 35.4277,-751.405 35.4277,-751.405 35.4277,-559.405 35.4277,-559.405 35.4277,-553.405 41.4277,-547.405 47.4277,-547.405"/>
<text text-anchor="middle" x="95.1416" y="-745.405" font-family="Times,serif" font-size="14.00">VendorsController</text>
<polyline fill="none" stroke="black" points="35.4277,-738.605 154.855,-738.605 "/>
<text text-anchor="start" x="43.4277" y="-720.605" font-family="Times,serif" font-size="14.00">create</text>
<text text-anchor="start" x="43.4277" y="-703.805" font-family="Times,serif" font-size="14.00">destroy</text>
<text text-anchor="start" x="43.4277" y="-687.005" font-family="Times,serif" font-size="14.00">edit</text>
<text text-anchor="start" x="43.4277" y="-670.205" font-family="Times,serif" font-size="14.00">index</text>
<text text-anchor="start" x="43.4277" y="-653.405" font-family="Times,serif" font-size="14.00">items</text>
<text text-anchor="start" x="43.4277" y="-636.605" font-family="Times,serif" font-size="14.00">new</text>
<text text-anchor="start" x="43.4277" y="-619.805" font-family="Times,serif" font-size="14.00">show</text>
<text text-anchor="start" x="43.4277" y="-603.005" font-family="Times,serif" font-size="14.00">update</text>
<polyline fill="none" stroke="black" points="35.4277,-596.205 154.855,-596.205 "/>
<polyline fill="none" stroke="black" points="35.4277,-572.205 154.855,-572.205 "/>
<text text-anchor="start" x="43.4277" y="-554.205" font-family="Times,serif" font-size="14.00">_layout</text>
</g>
<!-- ApplicationController&#45;&gt;VendorsController -->
<g id="edge12" class="edge"><title>ApplicationController&#45;&gt;VendorsController</title>
<path fill="none" stroke="black" d="M298.551,-615.385C250.903,-624.76 195.759,-635.609 154.916,-643.644"/>
</g>
<!-- RegistrationsController -->
<g id="node12" class="node"><title>RegistrationsController</title>
<path fill="none" stroke="black" d="M866,-366.5C866,-366.5 989.428,-366.5 989.428,-366.5 995.428,-366.5 1001.43,-372.5 1001.43,-378.5 1001.43,-378.5 1001.43,-452.9 1001.43,-452.9 1001.43,-458.9 995.428,-464.9 989.428,-464.9 989.428,-464.9 866,-464.9 866,-464.9 860,-464.9 854,-458.9 854,-452.9 854,-452.9 854,-378.5 854,-378.5 854,-372.5 860,-366.5 866,-366.5"/>
<text text-anchor="middle" x="927.714" y="-446.9" font-family="Times,serif" font-size="14.00">RegistrationsController</text>
<polyline fill="none" stroke="black" points="854,-440.1 1001.43,-440.1 "/>
<polyline fill="none" stroke="black" points="854,-416.1 1001.43,-416.1 "/>
<text text-anchor="start" x="862" y="-398.1" font-family="Times,serif" font-size="14.00">after_update_path_for</text>
<polyline fill="none" stroke="black" points="854,-391.3 1001.43,-391.3 "/>
<text text-anchor="start" x="862" y="-373.3" font-family="Times,serif" font-size="14.00">_layout</text>
</g>
<!-- Devise::RegistrationsController -->
<g id="node15" class="node"><title>Devise::RegistrationsController</title>
<ellipse fill="none" stroke="black" cx="1158.08" cy="-415.7" rx="133.75" ry="18"/>
<text text-anchor="middle" x="1158.08" y="-410.1" font-family="Times,serif" font-size="14.00">Devise::RegistrationsController</text>
</g>
<!-- Devise::RegistrationsController&#45;&gt;RegistrationsController -->
<g id="edge10" class="edge"><title>Devise::RegistrationsController&#45;&gt;RegistrationsController</title>
<path fill="none" stroke="black" d="M1024.08,-415.7C1016.46,-415.7 1008.95,-415.7 1001.69,-415.7"/>
</g>
</g>
</svg>
