<?xml version="1.0" encoding="UTF-8" standalone="no"?>
<!DOCTYPE svg PUBLIC "-//W3C//DTD SVG 1.1//EN"
 "http://www.w3.org/Graphics/SVG/1.1/DTD/svg11.dtd">
<!-- Generated by graphviz version 2.32.0 (20131209.0031)
 -->
<!-- Title: models_diagram Pages: 1 -->
<svg width="972pt" height="514pt"
 viewBox="0.00 0.00 972.00 514.00" xmlns="http://www.w3.org/2000/svg" xmlns:xlink="http://www.w3.org/1999/xlink">
<g id="graph0" class="graph" transform="scale(1 1) rotate(0) translate(4 510)">
<title>models_diagram</title>
<polygon fill="white" stroke="white" points="-4,5 -4,-510 969,-510 969,5 -4,5"/>
<!-- _diagram_info -->
<g id="node1" class="node"><title>_diagram_info</title>
<text text-anchor="start" x="178.312" y="-489" font-family="Times,serif" font-size="13.00">Models diagram</text>
<text text-anchor="start" x="178.312" y="-473.4" font-family="Times,serif" font-size="13.00">Date: Dec 08 2013 &#45; 16:32</text>
<text text-anchor="start" x="178.312" y="-457.8" font-family="Times,serif" font-size="13.00">Migration version: 20131208164507</text>
<text text-anchor="start" x="178.312" y="-442.2" font-family="Times,serif" font-size="13.00">Generated by RailRoady 1.1.1</text>
<text text-anchor="start" x="178.312" y="-426.6" font-family="Times,serif" font-size="13.00">http://railroady.prestonlee.com</text>
</g>
<!-- Address -->
<g id="node2" class="node"><title>Address</title>
<ellipse fill="none" stroke="black" cx="46" cy="-18" rx="42.5278" ry="18"/>
<text text-anchor="middle" x="46" y="-12.4" font-family="Times,serif" font-size="14.00">Address</text>
</g>
<!-- CreditCard -->
<g id="node3" class="node"><title>CreditCard</title>
<ellipse fill="none" stroke="black" cx="236" cy="-182" rx="53.4192" ry="18"/>
<text text-anchor="middle" x="236" y="-176.4" font-family="Times,serif" font-size="14.00">CreditCard</text>
</g>
<!-- DeliveryArea -->
<g id="node4" class="node"><title>DeliveryArea</title>
<ellipse fill="none" stroke="black" cx="430" cy="-108" rx="63.3755" ry="18"/>
<text text-anchor="middle" x="430" y="-102.4" font-family="Times,serif" font-size="14.00">DeliveryArea</text>
</g>
<!-- DeliveryPoint -->
<g id="node5" class="node"><title>DeliveryPoint</title>
<ellipse fill="none" stroke="black" cx="174" cy="-364" rx="65.3234" ry="18"/>
<text text-anchor="middle" x="174" y="-358.4" font-family="Times,serif" font-size="14.00">DeliveryPoint</text>
</g>
<!-- DeliveryArea&#45;&gt;DeliveryPoint -->
<g id="edge3" class="edge"><title>DeliveryArea&#45;&gt;DeliveryPoint</title>
<path fill="none" stroke="#6a543c" d="M366.847,-118.308C294.77,-129.572 185.207,-148.904 173,-164 133.047,-213.408 151.016,-294.533 164.303,-336.303"/>
<ellipse fill="none" stroke="#6a543c" cx="371.053" cy="-117.655" rx="4.00001" ry="4.00001"/>
<polygon fill="#6a543c" stroke="#6a543c" points="164.383,-336.543 163.273,-347.452 165.963,-341.287 167.542,-346.031 167.542,-346.031 167.542,-346.031 165.963,-341.287 171.812,-344.609 164.383,-336.543 164.383,-336.543"/>
</g>
<!-- DeliveryPoint&#45;&gt;Address -->
<g id="edge6" class="edge"><title>DeliveryPoint&#45;&gt;Address</title>
<path fill="none" stroke="#e5abde" d="M156.473,-339.299C154.127,-335.615 151.884,-331.776 150,-328 99.9796,-227.764 65.142,-97.8302 51.9077,-44.0256"/>
<ellipse fill="none" stroke="#e5abde" cx="158.823" cy="-342.811" rx="4.00002" ry="4.00002"/>
<ellipse fill="#e5abde" stroke="#e5abde" cx="50.9156" cy="-39.9468" rx="4.00001" ry="4.00001"/>
<text text-anchor="middle" x="118.993" y="-176.4" font-family="Times,serif" font-size="14.00">address</text>
</g>
<!-- User -->
<g id="node14" class="node"><title>User</title>
<ellipse fill="none" stroke="black" cx="373" cy="-256" rx="28.9087" ry="18"/>
<text text-anchor="middle" x="373" y="-250.4" font-family="Times,serif" font-size="14.00">User</text>
</g>
<!-- DeliveryPoint&#45;&gt;User -->
<g id="edge5" class="edge"><title>DeliveryPoint&#45;&gt;User</title>
<path fill="none" stroke="#93dbd6" d="M209.659,-344.006C247.548,-323.824 306.814,-292.255 342.577,-273.205"/>
<ellipse fill="none" stroke="#93dbd6" cx="206.042" cy="-345.932" rx="4.00002" ry="4.00002"/>
<polygon fill="#93dbd6" stroke="#93dbd6" points="342.743,-273.117 353.685,-272.387 347.156,-270.766 351.569,-268.415 351.569,-268.415 351.569,-268.415 347.156,-270.766 349.454,-264.444 342.743,-273.117 342.743,-273.117"/>
<text text-anchor="middle" x="331.383" y="-304.4" font-family="Times,serif" font-size="14.00">customers</text>
</g>
<!-- Ingredient -->
<g id="node6" class="node"><title>Ingredient</title>
<ellipse fill="none" stroke="black" cx="868" cy="-310" rx="50.5802" ry="18"/>
<text text-anchor="middle" x="868" y="-304.4" font-family="Times,serif" font-size="14.00">Ingredient</text>
</g>
<!-- Item -->
<g id="node7" class="node"><title>Item</title>
<ellipse fill="none" stroke="black" cx="692" cy="-18" rx="28.5985" ry="18"/>
<text text-anchor="middle" x="692" y="-12.4" font-family="Times,serif" font-size="14.00">Item</text>
</g>
<!-- Ingredient&#45;&gt;Item -->
<g id="edge8" class="edge"><title>Ingredient&#45;&gt;Item</title>
<path fill="none" stroke="#e418c6" d="M894.068,-285.434C909.476,-268.855 926,-245.2 926,-220 926,-220 926,-220 926,-107 926,-65.4923 795.377,-36.8856 729.319,-25.0725"/>
<polygon fill="#e418c6" stroke="#e418c6" points="893.671,-285.839 883.457,-289.83 890.171,-289.409 886.671,-292.98 886.671,-292.98 886.671,-292.98 890.171,-289.409 889.884,-296.13 893.671,-285.839 893.671,-285.839"/>
<polygon fill="#e418c6" stroke="#e418c6" points="729.151,-25.0433 720.076,-18.8885 724.226,-24.1823 719.301,-23.3213 719.301,-23.3213 719.301,-23.3213 724.226,-24.1823 718.526,-27.7541 729.151,-25.0433 729.151,-25.0433"/>
</g>
<!-- ItemOrder -->
<g id="node8" class="node"><title>ItemOrder</title>
<ellipse fill="none" stroke="black" cx="613" cy="-108" rx="50.8818" ry="18"/>
<text text-anchor="middle" x="613" y="-102.4" font-family="Times,serif" font-size="14.00">ItemOrder</text>
</g>
<!-- ItemOrder&#45;&gt;Item -->
<g id="edge11" class="edge"><title>ItemOrder&#45;&gt;Item</title>
<path fill="none" stroke="#98d5f0" d="M633.264,-84.4275C645.482,-70.817 660.95,-53.5876 672.945,-40.2263"/>
<ellipse fill="none" stroke="#98d5f0" cx="630.531" cy="-87.4713" rx="4.00002" ry="4.00002"/>
<ellipse fill="#98d5f0" stroke="#98d5f0" cx="675.852" cy="-36.9871" rx="4.00002" ry="4.00002"/>
</g>
<!-- Menu -->
<g id="node9" class="node"><title>Menu</title>
<ellipse fill="none" stroke="black" cx="662" cy="-364" rx="33.3489" ry="18"/>
<text text-anchor="middle" x="662" y="-358.4" font-family="Times,serif" font-size="14.00">Menu</text>
</g>
<!-- Menu&#45;&gt;DeliveryArea -->
<g id="edge15" class="edge"><title>Menu&#45;&gt;DeliveryArea</title>
<path fill="none" stroke="#134b24" d="M659.513,-338.006C654.053,-296.277 637.278,-212.253 588,-164 563.375,-139.888 527.633,-126.312 496.37,-118.685"/>
<ellipse fill="none" stroke="#134b24" cx="660.004" cy="-342.032" rx="4.00001" ry="4.00001"/>
<polygon fill="#134b24" stroke="#134b24" points="496.147,-118.634 487.397,-112.024 491.272,-117.523 486.397,-116.412 486.397,-116.412 486.397,-116.412 491.272,-117.523 485.397,-120.799 496.147,-118.634 496.147,-118.634"/>
</g>
<!-- Menu&#45;&gt;Item -->
<g id="edge14" class="edge"><title>Menu&#45;&gt;Item</title>
<path fill="none" stroke="#f8251d" d="M673.726,-336.9C682.141,-315.791 692,-285.068 692,-257 692,-257 692,-257 692,-107 692,-86.6304 692,-63.6087 692,-46.2225"/>
<polygon fill="#f8251d" stroke="#f8251d" points="673.717,-336.922 665.726,-344.432 671.8,-341.54 669.882,-346.158 669.882,-346.158 669.882,-346.158 671.8,-341.54 674.038,-347.883 673.717,-336.922 673.717,-336.922"/>
<polygon fill="#f8251d" stroke="#f8251d" points="692,-46.1995 696.5,-36.1994 692,-41.1995 692,-36.1995 692,-36.1995 692,-36.1995 692,-41.1995 687.5,-36.1995 692,-46.1995 692,-46.1995"/>
<text text-anchor="middle" x="734.766" y="-176.4" font-family="Times,serif" font-size="14.00">item_templates</text>
</g>
<!-- MenuItem -->
<g id="node10" class="node"><title>MenuItem</title>
<ellipse fill="none" stroke="black" cx="771" cy="-256" rx="50.8959" ry="18"/>
<text text-anchor="middle" x="771" y="-250.4" font-family="Times,serif" font-size="14.00">MenuItem</text>
</g>
<!-- Menu&#45;&gt;MenuItem -->
<g id="edge13" class="edge"><title>Menu&#45;&gt;MenuItem</title>
<path fill="none" stroke="#b6316d" d="M686.977,-343.637C692.533,-338.81 698.194,-333.448 703,-328 715.668,-313.641 713.729,-306.114 726.669,-292 730.829,-287.462 735.615,-283.045 740.47,-278.963"/>
<ellipse fill="none" stroke="#b6316d" cx="683.623" cy="-346.458" rx="4.00002" ry="4.00002"/>
<polygon fill="#b6316d" stroke="#b6316d" points="740.801,-278.697 751.419,-275.957 744.704,-275.571 748.606,-272.445 748.606,-272.445 748.606,-272.445 744.704,-275.571 745.793,-268.933 740.801,-278.697 740.801,-278.697"/>
<text text-anchor="middle" x="741.166" y="-304.4" font-family="Times,serif" font-size="14.00">items</text>
</g>
<!-- OrderItem -->
<g id="node17" class="node"><title>OrderItem</title>
<ellipse fill="none" stroke="black" cx="847" cy="-182" rx="50.8818" ry="18"/>
<text text-anchor="middle" x="847" y="-176.4" font-family="Times,serif" font-size="14.00">OrderItem</text>
</g>
<!-- MenuItem&#45;&gt;OrderItem -->
<g id="edge17" class="edge"><title>MenuItem&#45;&gt;OrderItem</title>
<path fill="none" stroke="#d1f5a8" d="M794.082,-233.133C803.143,-224.548 813.55,-214.689 822.725,-205.998"/>
<ellipse fill="none" stroke="#d1f5a8" cx="791.149" cy="-235.911" rx="4.00002" ry="4.00002"/>
<polygon fill="#d1f5a8" stroke="#d1f5a8" points="822.825,-205.903 833.179,-202.292 826.455,-202.464 830.084,-199.025 830.084,-199.025 830.084,-199.025 826.455,-202.464 826.99,-195.758 822.825,-205.903 822.825,-205.903"/>
</g>
<!-- Order -->
<g id="node11" class="node"><title>Order</title>
<ellipse fill="none" stroke="black" cx="546" cy="-182" rx="33.3348" ry="18"/>
<text text-anchor="middle" x="546" y="-176.4" font-family="Times,serif" font-size="14.00">Order</text>
</g>
<!-- Order&#45;&gt;ItemOrder -->
<g id="edge19" class="edge"><title>Order&#45;&gt;ItemOrder</title>
<path fill="none" stroke="#9509b7" d="M566.249,-159.24C574.012,-150.898 582.906,-141.34 590.838,-132.816"/>
<ellipse fill="none" stroke="#9509b7" cx="563.263" cy="-162.449" rx="4.00002" ry="4.00002"/>
<polygon fill="#9509b7" stroke="#9509b7" points="590.98,-132.663 601.087,-128.408 594.387,-129.002 597.793,-125.342 597.793,-125.342 597.793,-125.342 594.387,-129.002 594.498,-122.277 590.98,-132.663 590.98,-132.663"/>
</g>
<!-- PhoneNumber -->
<g id="node12" class="node"><title>PhoneNumber</title>
<ellipse fill="none" stroke="black" cx="338" cy="-18" rx="66.2365" ry="18"/>
<text text-anchor="middle" x="338" y="-12.4" font-family="Times,serif" font-size="14.00">PhoneNumber</text>
</g>
<!-- Server -->
<g id="node13" class="node"><title>Server</title>
<ellipse fill="none" stroke="black" cx="344" cy="-182" rx="36.3605" ry="18"/>
<text text-anchor="middle" x="344" y="-176.4" font-family="Times,serif" font-size="14.00">Server</text>
</g>
<!-- Server&#45;&gt;DeliveryArea -->
<g id="edge23" class="edge"><title>Server&#45;&gt;DeliveryArea</title>
<path fill="none" stroke="#d7e35f" d="M368.147,-160.784C379.498,-151.281 393.036,-139.947 404.548,-130.309"/>
<ellipse fill="none" stroke="#d7e35f" cx="364.886" cy="-163.514" rx="4.00002" ry="4.00002"/>
<ellipse fill="#d7e35f" stroke="#d7e35f" cx="407.641" cy="-127.719" rx="4.00002" ry="4.00002"/>
</g>
<!-- Vendor -->
<g id="node15" class="node"><title>Vendor</title>
<ellipse fill="none" stroke="black" cx="271" cy="-108" rx="38.3923" ry="18"/>
<text text-anchor="middle" x="271" y="-102.4" font-family="Times,serif" font-size="14.00">Vendor</text>
</g>
<!-- Server&#45;&gt;Vendor -->
<g id="edge22" class="edge"><title>Server&#45;&gt;Vendor</title>
<path fill="none" stroke="#0f2f99" d="M321.151,-158.464C312.491,-149.923 302.634,-140.201 293.964,-131.65"/>
<polygon fill="#0f2f99" stroke="#0f2f99" points="321.399,-158.708 325.359,-168.935 324.959,-162.22 328.519,-165.731 328.519,-165.731 328.519,-165.731 324.959,-162.22 331.679,-162.527 321.399,-158.708 321.399,-158.708"/>
<polygon fill="#0f2f99" stroke="#0f2f99" points="293.83,-131.518 289.871,-121.292 290.271,-128.007 286.711,-124.496 286.711,-124.496 286.711,-124.496 290.271,-128.007 283.551,-127.699 293.83,-131.518 293.83,-131.518"/>
</g>
<!-- User&#45;&gt;CreditCard -->
<g id="edge26" class="edge"><title>User&#45;&gt;CreditCard</title>
<path fill="none" stroke="#d55c13" d="M344.281,-239.907C323.497,-228.984 295.236,-214.131 272.797,-202.339"/>
<ellipse fill="none" stroke="#d55c13" cx="348.053" cy="-241.889" rx="4.00002" ry="4.00002"/>
<polygon fill="#d55c13" stroke="#d55c13" points="272.741,-202.309 265.983,-193.674 268.315,-199.983 263.889,-197.657 263.889,-197.657 263.889,-197.657 268.315,-199.983 261.796,-201.64 272.741,-202.309 272.741,-202.309"/>
</g>
<!-- User&#45;&gt;Order -->
<g id="edge27" class="edge"><title>User&#45;&gt;Order</title>
<path fill="none" stroke="#6527ec" d="M404.305,-241.972C434.292,-229.491 479.479,-210.685 510.726,-197.681"/>
<ellipse fill="none" stroke="#6527ec" cx="400.385" cy="-243.603" rx="4.00001" ry="4.00001"/>
<polygon fill="#6527ec" stroke="#6527ec" points="511.111,-197.52 522.073,-197.832 515.728,-195.599 520.344,-193.678 520.344,-193.678 520.344,-193.678 515.728,-195.599 518.615,-189.523 511.111,-197.52 511.111,-197.52"/>
</g>
<!-- User&#45;&gt;PhoneNumber -->
<g id="edge25" class="edge"><title>User&#45;&gt;PhoneNumber</title>
<path fill="none" stroke="#91d548" d="M383.878,-230.931C390.761,-212.233 396.988,-185.887 389,-164 381.43,-143.259 366.361,-145.997 357,-126 344.73,-99.7875 340.342,-66.5686 338.797,-44.1524"/>
<ellipse fill="none" stroke="#91d548" cx="382.39" cy="-234.718" rx="4.00001" ry="4.00001"/>
<ellipse fill="#91d548" stroke="#91d548" cx="338.564" cy="-40.1205" rx="4" ry="4"/>
</g>
<!-- User&#45;&gt;Server -->
<g id="edge24" class="edge"><title>User&#45;&gt;Server</title>
<path fill="none" stroke="black" d="M366.274,-238.301C361.656,-226.835 355.544,-211.661 350.891,-200.109"/>
</g>
<!-- Vendor&#45;&gt;Address -->
<g id="edge31" class="edge"><title>Vendor&#45;&gt;Address</title>
<path fill="none" stroke="#eda969" d="M234.903,-92.8819C193.431,-76.6618 125.7,-50.1715 83.6043,-33.7075"/>
<ellipse fill="none" stroke="#eda969" cx="238.778" cy="-94.3977" rx="4.00001" ry="4.00001"/>
<ellipse fill="#eda969" stroke="#eda969" cx="79.7798" cy="-32.2117" rx="4.00001" ry="4.00001"/>
<text text-anchor="middle" x="199.993" y="-57.4" font-family="Times,serif" font-size="14.00">address</text>
</g>
<!-- Vendor&#45;&gt;Item -->
<g id="edge29" class="edge"><title>Vendor&#45;&gt;Item</title>
<path fill="none" stroke="#43eade" d="M313.482,-98.1201C396.303,-80.8084 578.023,-42.8242 655.663,-26.5954"/>
<ellipse fill="none" stroke="#43eade" cx="309.368" cy="-98.9801" rx="4.00001" ry="4.00001"/>
<polygon fill="#43eade" stroke="#43eade" points="655.684,-26.591 666.393,-28.9497 660.578,-25.568 665.473,-24.5449 665.473,-24.5449 665.473,-24.5449 660.578,-25.568 664.552,-20.1401 655.684,-26.591 655.684,-26.591"/>
</g>
<!-- Vendor&#45;&gt;PhoneNumber -->
<g id="edge30" class="edge"><title>Vendor&#45;&gt;PhoneNumber</title>
<path fill="none" stroke="#62ee1b" d="M288.306,-84.2692C298.094,-71.4135 310.311,-55.3682 320.181,-42.4036"/>
<ellipse fill="none" stroke="#62ee1b" cx="285.712" cy="-87.6769" rx="4.00002" ry="4.00002"/>
<ellipse fill="#62ee1b" stroke="#62ee1b" cx="322.681" cy="-39.1205" rx="4.00002" ry="4.00002"/>
</g>
<!-- ActiveRecord::Base -->
<g id="node16" class="node"><title>ActiveRecord::Base</title>
<ellipse fill="none" stroke="black" cx="484" cy="-463" rx="88.2033" ry="18"/>
<text text-anchor="middle" x="484" y="-457.4" font-family="Times,serif" font-size="14.00">ActiveRecord::Base</text>
</g>
<!-- ActiveRecord::Base&#45;&gt;Address -->
<g id="edge1" class="edge"><title>ActiveRecord::Base&#45;&gt;Address</title>
<path fill="none" stroke="black" d="M454.012,-446.026C435.062,-436.73 409.749,-425.743 386,-420 301.783,-399.634 0,-451.644 0,-365 0,-365 0,-365 0,-107 0,-79.4174 17.9688,-51.938 31.4453,-35.2073"/>
</g>
<!-- ActiveRecord::Base&#45;&gt;CreditCard -->
<g id="edge2" class="edge"><title>ActiveRecord::Base&#45;&gt;CreditCard</title>
<path fill="none" stroke="black" d="M448.064,-446.488C403.881,-425.675 329.43,-384.663 286,-328 255.709,-288.478 242.992,-229.326 238.337,-200.31"/>
</g>
<!-- ActiveRecord::Base&#45;&gt;DeliveryArea -->
<g id="edge4" class="edge"><title>ActiveRecord::Base&#45;&gt;DeliveryArea</title>
<path fill="none" stroke="black" d="M472.804,-444.914C461.595,-426.128 446,-394.662 446,-365 446,-365 446,-365 446,-181 446,-161.793 440.507,-140.375 435.958,-125.931"/>
</g>
<!-- ActiveRecord::Base&#45;&gt;DeliveryPoint -->
<g id="edge7" class="edge"><title>ActiveRecord::Base&#45;&gt;DeliveryPoint</title>
<path fill="none" stroke="black" d="M452.555,-445.988C433.703,-437.037 408.999,-426.422 386,-420 330.668,-404.549 313.254,-417.728 258,-402 239.148,-396.634 219.02,-387.883 203.195,-380.238"/>
</g>
<!-- ActiveRecord::Base&#45;&gt;Ingredient -->
<g id="edge9" class="edge"><title>ActiveRecord::Base&#45;&gt;Ingredient</title>
<path fill="none" stroke="black" d="M570.378,-459.064C633.408,-453.647 718.998,-439.27 785,-402 817.212,-383.81 843.792,-348.647 857.641,-327.758"/>
</g>
<!-- ActiveRecord::Base&#45;&gt;Item -->
<g id="edge10" class="edge"><title>ActiveRecord::Base&#45;&gt;Item</title>
<path fill="none" stroke="black" d="M572.319,-461.939C710.952,-459.424 964,-444.013 964,-365 964,-365 964,-365 964,-107 964,-56.065 789.154,-30.2373 719.831,-21.9988"/>
</g>
<!-- ActiveRecord::Base&#45;&gt;ItemOrder -->
<g id="edge12" class="edge"><title>ActiveRecord::Base&#45;&gt;ItemOrder</title>
<path fill="none" stroke="black" d="M492.222,-445.046C497.943,-433.092 505.652,-416.663 512,-402 515.804,-393.214 516.547,-390.929 520,-382 551.148,-301.463 561.425,-282.159 588,-200 596.219,-174.59 604.107,-144.646 608.753,-126.243"/>
</g>
<!-- ActiveRecord::Base&#45;&gt;Menu -->
<g id="edge16" class="edge"><title>ActiveRecord::Base&#45;&gt;Menu</title>
<path fill="none" stroke="black" d="M516.936,-446.157C540.816,-434.452 573.742,-417.862 602,-402 615.34,-394.512 629.957,-385.515 641.425,-378.268"/>
</g>
<!-- ActiveRecord::Base&#45;&gt;MenuItem -->
<g id="edge18" class="edge"><title>ActiveRecord::Base&#45;&gt;MenuItem</title>
<path fill="none" stroke="black" d="M540.017,-449.053C586.459,-436.638 652.905,-414.877 704,-382 732.28,-363.803 741.311,-357.744 757,-328 765.909,-311.109 769.174,-289.246 770.357,-274.269"/>
</g>
<!-- ActiveRecord::Base&#45;&gt;Order -->
<g id="edge20" class="edge"><title>ActiveRecord::Base&#45;&gt;Order</title>
<path fill="none" stroke="black" d="M488.044,-444.945C490.874,-432.944 494.719,-416.502 498,-402 515.006,-326.832 534.42,-236.932 542.344,-200.055"/>
</g>
<!-- ActiveRecord::Base&#45;&gt;PhoneNumber -->
<g id="edge21" class="edge"><title>ActiveRecord::Base&#45;&gt;PhoneNumber</title>
<path fill="none" stroke="black" d="M484,-444.828C484,-425.441 484,-392.955 484,-365 484,-365 484,-365 484,-218 484,-160.551 533.537,-138.018 502,-90 478.411,-54.0827 432.343,-36.2475 395.024,-27.4419"/>
</g>
<!-- ActiveRecord::Base&#45;&gt;User -->
<g id="edge28" class="edge"><title>ActiveRecord::Base&#45;&gt;User</title>
<path fill="none" stroke="black" d="M466.652,-445.089C455.659,-433.68 441.731,-417.862 432,-402 405.566,-358.911 386.398,-301.891 377.892,-273.93"/>
</g>
<!-- ActiveRecord::Base&#45;&gt;Vendor -->
<g id="edge32" class="edge"><title>ActiveRecord::Base&#45;&gt;Vendor</title>
<path fill="none" stroke="black" d="M453.011,-446.127C434.112,-437.109 409.203,-426.378 386,-420 324.179,-403.008 142.234,-430.238 100,-382 57.2007,-333.115 -1.39148,-342.332 151,-164 173.035,-138.215 209.699,-123.861 236.713,-116.339"/>
</g>
</g>
</svg>
