<?xml version="1.0" encoding="UTF-8" standalone="no"?>
<!DOCTYPE svg PUBLIC "-//W3C//DTD SVG 1.1//EN"
 "http://www.w3.org/Graphics/SVG/1.1/DTD/svg11.dtd">
<!-- Generated by graphviz version 2.32.0 (20131209.0031)
 -->
<!-- Title: models_diagram Pages: 1 -->
<svg width="1225pt" height="1562pt"
 viewBox="0.00 0.00 1225.00 1562.00" xmlns="http://www.w3.org/2000/svg" xmlns:xlink="http://www.w3.org/1999/xlink">
<g id="graph0" class="graph" transform="scale(1 1) rotate(0) translate(4 1558)">
<title>models_diagram</title>
<polygon fill="white" stroke="white" points="-4,5 -4,-1558 1222,-1558 1222,5 -4,5"/>
<!-- _diagram_info -->
<g id="node1" class="node"><title>_diagram_info</title>
<text text-anchor="start" x="365.312" y="-1537" font-family="Times,serif" font-size="13.00">Models diagram</text>
<text text-anchor="start" x="365.312" y="-1521.4" font-family="Times,serif" font-size="13.00">Date: Dec 08 2013 &#45; 16:32</text>
<text text-anchor="start" x="365.312" y="-1505.8" font-family="Times,serif" font-size="13.00">Migration version: 20131208164507</text>
<text text-anchor="start" x="365.312" y="-1490.2" font-family="Times,serif" font-size="13.00">Generated by RailRoady 1.1.1</text>
<text text-anchor="start" x="365.312" y="-1474.6" font-family="Times,serif" font-size="13.00">http://railroady.prestonlee.com</text>
</g>
<!-- Address -->
<g id="node2" class="node"><title>Address</title>
<path fill="none" stroke="black" d="M11.1567,-0.6C11.1567,-0.6 138.843,-0.6 138.843,-0.6 144.843,-0.6 150.843,-6.6 150.843,-12.6 150.843,-12.6 150.843,-189.4 150.843,-189.4 150.843,-195.4 144.843,-201.4 138.843,-201.4 138.843,-201.4 11.1567,-201.4 11.1567,-201.4 5.15674,-201.4 -0.843262,-195.4 -0.843262,-189.4 -0.843262,-189.4 -0.843262,-12.6 -0.843262,-12.6 -0.843262,-6.6 5.15674,-0.6 11.1567,-0.6"/>
<text text-anchor="middle" x="75" y="-183.4" font-family="Times,serif" font-size="14.00">Address</text>
<polyline fill="none" stroke="black" points="-0.843262,-176.6 150.843,-176.6 "/>
<text text-anchor="start" x="7.15674" y="-158.6" font-family="Times,serif" font-size="14.00">id :integer</text>
<text text-anchor="start" x="7.15674" y="-141.8" font-family="Times,serif" font-size="14.00">line1 :string</text>
<text text-anchor="start" x="7.15674" y="-125" font-family="Times,serif" font-size="14.00">line2 :string</text>
<text text-anchor="start" x="7.15674" y="-108.2" font-family="Times,serif" font-size="14.00">city :string</text>
<text text-anchor="start" x="7.15674" y="-91.4" font-family="Times,serif" font-size="14.00">state :string</text>
<text text-anchor="start" x="7.15674" y="-74.6" font-family="Times,serif" font-size="14.00">zip :string</text>
<text text-anchor="start" x="7.15674" y="-57.8" font-family="Times,serif" font-size="14.00">addressable_id :integer</text>
<text text-anchor="start" x="7.15674" y="-41" font-family="Times,serif" font-size="14.00">addressable_type :string</text>
<text text-anchor="start" x="7.15674" y="-24.2" font-family="Times,serif" font-size="14.00">created_at :datetime</text>
<text text-anchor="start" x="7.15674" y="-7.4" font-family="Times,serif" font-size="14.00">updated_at :datetime</text>
</g>
<!-- CreditCard -->
<g id="node3" class="node"><title>CreditCard</title>
<path fill="none" stroke="black" d="M223.495,-522.8C223.495,-522.8 332.505,-522.8 332.505,-522.8 338.505,-522.8 344.505,-528.8 344.505,-534.8 344.505,-534.8 344.505,-661.2 344.505,-661.2 344.505,-667.2 338.505,-673.2 332.505,-673.2 332.505,-673.2 223.495,-673.2 223.495,-673.2 217.495,-673.2 211.495,-667.2 211.495,-661.2 211.495,-661.2 211.495,-534.8 211.495,-534.8 211.495,-528.8 217.495,-522.8 223.495,-522.8"/>
<text text-anchor="middle" x="278" y="-655.2" font-family="Times,serif" font-size="14.00">CreditCard</text>
<polyline fill="none" stroke="black" points="211.495,-648.4 344.505,-648.4 "/>
<text text-anchor="start" x="219.495" y="-630.4" font-family="Times,serif" font-size="14.00">id :integer</text>
<text text-anchor="start" x="219.495" y="-613.6" font-family="Times,serif" font-size="14.00">token :string</text>
<text text-anchor="start" x="219.495" y="-596.8" font-family="Times,serif" font-size="14.00">last_four :string</text>
<text text-anchor="start" x="219.495" y="-580" font-family="Times,serif" font-size="14.00">created_at :datetime</text>
<text text-anchor="start" x="219.495" y="-563.2" font-family="Times,serif" font-size="14.00">updated_at :datetime</text>
<text text-anchor="start" x="219.495" y="-546.4" font-family="Times,serif" font-size="14.00">user_id :integer</text>
<text text-anchor="start" x="219.495" y="-529.6" font-family="Times,serif" font-size="14.00">default :boolean</text>
</g>
<!-- DeliveryArea -->
<g id="node4" class="node"><title>DeliveryArea</title>
<path fill="none" stroke="black" d="M545.495,-257.2C545.495,-257.2 654.505,-257.2 654.505,-257.2 660.505,-257.2 666.505,-263.2 666.505,-269.2 666.505,-269.2 666.505,-378.8 666.505,-378.8 666.505,-384.8 660.505,-390.8 654.505,-390.8 654.505,-390.8 545.495,-390.8 545.495,-390.8 539.495,-390.8 533.495,-384.8 533.495,-378.8 533.495,-378.8 533.495,-269.2 533.495,-269.2 533.495,-263.2 539.495,-257.2 545.495,-257.2"/>
<text text-anchor="middle" x="600" y="-372.8" font-family="Times,serif" font-size="14.00">DeliveryArea</text>
<polyline fill="none" stroke="black" points="533.495,-366 666.505,-366 "/>
<text text-anchor="start" x="541.495" y="-348" font-family="Times,serif" font-size="14.00">id :integer</text>
<text text-anchor="start" x="541.495" y="-331.2" font-family="Times,serif" font-size="14.00">name :string</text>
<text text-anchor="start" x="541.495" y="-314.4" font-family="Times,serif" font-size="14.00">server_id :integer</text>
<text text-anchor="start" x="541.495" y="-297.6" font-family="Times,serif" font-size="14.00">menu_id :integer</text>
<text text-anchor="start" x="541.495" y="-280.8" font-family="Times,serif" font-size="14.00">created_at :datetime</text>
<text text-anchor="start" x="541.495" y="-264" font-family="Times,serif" font-size="14.00">updated_at :datetime</text>
</g>
<!-- DeliveryPoint -->
<g id="node5" class="node"><title>DeliveryPoint</title>
<path fill="none" stroke="black" d="M153.839,-1278.8C153.839,-1278.8 286.161,-1278.8 286.161,-1278.8 292.161,-1278.8 298.161,-1284.8 298.161,-1290.8 298.161,-1290.8 298.161,-1417.2 298.161,-1417.2 298.161,-1423.2 292.161,-1429.2 286.161,-1429.2 286.161,-1429.2 153.839,-1429.2 153.839,-1429.2 147.839,-1429.2 141.839,-1423.2 141.839,-1417.2 141.839,-1417.2 141.839,-1290.8 141.839,-1290.8 141.839,-1284.8 147.839,-1278.8 153.839,-1278.8"/>
<text text-anchor="middle" x="220" y="-1411.2" font-family="Times,serif" font-size="14.00">DeliveryPoint</text>
<polyline fill="none" stroke="black" points="141.839,-1404.4 298.161,-1404.4 "/>
<text text-anchor="start" x="149.839" y="-1386.4" font-family="Times,serif" font-size="14.00">id :integer</text>
<text text-anchor="start" x="149.839" y="-1369.6" font-family="Times,serif" font-size="14.00">latitude :decimal</text>
<text text-anchor="start" x="149.839" y="-1352.8" font-family="Times,serif" font-size="14.00">longitude :decimal</text>
<text text-anchor="start" x="149.839" y="-1336" font-family="Times,serif" font-size="14.00">customer_id :integer</text>
<text text-anchor="start" x="149.839" y="-1319.2" font-family="Times,serif" font-size="14.00">delivery_area_id :integer</text>
<text text-anchor="start" x="149.839" y="-1302.4" font-family="Times,serif" font-size="14.00">created_at :datetime</text>
<text text-anchor="start" x="149.839" y="-1285.6" font-family="Times,serif" font-size="14.00">updated_at :datetime</text>
</g>
<!-- DeliveryArea&#45;&gt;DeliveryPoint -->
<g id="edge3" class="edge"><title>DeliveryArea&#45;&gt;DeliveryPoint</title>
<path fill="none" stroke="#f648a6" d="M526.121,-373.675C512.851,-380.762 498.831,-387.255 485,-392 424.981,-412.592 243.776,-382.239 202,-430 147.63,-492.159 192.473,-1052.49 212.019,-1268.56"/>
<ellipse fill="none" stroke="#f648a6" cx="529.902" cy="-371.604" rx="4.00002" ry="4.00002"/>
<polygon fill="#f648a6" stroke="#f648a6" points="212.025,-1268.63 208.448,-1278.99 212.477,-1273.61 212.93,-1278.59 212.93,-1278.59 212.93,-1278.59 212.477,-1273.61 217.411,-1278.18 212.025,-1268.63 212.025,-1268.63"/>
</g>
<!-- DeliveryPoint&#45;&gt;Address -->
<g id="edge6" class="edge"><title>DeliveryPoint&#45;&gt;Address</title>
<path fill="none" stroke="#aa8436" d="M200.913,-1270.16C192.369,-1230.88 182.729,-1183.19 176,-1140 123.42,-802.475 93.4839,-398.675 81.3737,-209.606"/>
<ellipse fill="none" stroke="#aa8436" cx="201.863" cy="-1274.5" rx="4.00001" ry="4.00001"/>
<ellipse fill="#aa8436" stroke="#aa8436" cx="81.1174" cy="-205.585" rx="4" ry="4"/>
<text text-anchor="middle" x="148.993" y="-592.4" font-family="Times,serif" font-size="14.00">address</text>
</g>
<!-- User -->
<g id="node14" class="node"><title>User</title>
<path fill="none" stroke="black" d="M405.722,-804.4C405.722,-804.4 586.278,-804.4 586.278,-804.4 592.278,-804.4 598.278,-810.4 598.278,-816.4 598.278,-816.4 598.278,-1127.6 598.278,-1127.6 598.278,-1133.6 592.278,-1139.6 586.278,-1139.6 586.278,-1139.6 405.722,-1139.6 405.722,-1139.6 399.722,-1139.6 393.722,-1133.6 393.722,-1127.6 393.722,-1127.6 393.722,-816.4 393.722,-816.4 393.722,-810.4 399.722,-804.4 405.722,-804.4"/>
<text text-anchor="middle" x="496" y="-1121.6" font-family="Times,serif" font-size="14.00">User</text>
<polyline fill="none" stroke="black" points="393.722,-1114.8 598.278,-1114.8 "/>
<text text-anchor="start" x="401.722" y="-1096.8" font-family="Times,serif" font-size="14.00">id :integer</text>
<text text-anchor="start" x="401.722" y="-1080" font-family="Times,serif" font-size="14.00">role :integer</text>
<text text-anchor="start" x="401.722" y="-1063.2" font-family="Times,serif" font-size="14.00">created_at :datetime</text>
<text text-anchor="start" x="401.722" y="-1046.4" font-family="Times,serif" font-size="14.00">updated_at :datetime</text>
<text text-anchor="start" x="401.722" y="-1029.6" font-family="Times,serif" font-size="14.00">email :string</text>
<text text-anchor="start" x="401.722" y="-1012.8" font-family="Times,serif" font-size="14.00">encrypted_password :string</text>
<text text-anchor="start" x="401.722" y="-996" font-family="Times,serif" font-size="14.00">reset_password_token :string</text>
<text text-anchor="start" x="401.722" y="-979.2" font-family="Times,serif" font-size="14.00">reset_password_sent_at :datetime</text>
<text text-anchor="start" x="401.722" y="-962.4" font-family="Times,serif" font-size="14.00">remember_created_at :datetime</text>
<text text-anchor="start" x="401.722" y="-945.6" font-family="Times,serif" font-size="14.00">sign_in_count :integer</text>
<text text-anchor="start" x="401.722" y="-928.8" font-family="Times,serif" font-size="14.00">current_sign_in_at :datetime</text>
<text text-anchor="start" x="401.722" y="-912" font-family="Times,serif" font-size="14.00">last_sign_in_at :datetime</text>
<text text-anchor="start" x="401.722" y="-895.2" font-family="Times,serif" font-size="14.00">current_sign_in_ip :string</text>
<text text-anchor="start" x="401.722" y="-878.4" font-family="Times,serif" font-size="14.00">last_sign_in_ip :string</text>
<text text-anchor="start" x="401.722" y="-861.6" font-family="Times,serif" font-size="14.00">first_name :string</text>
<text text-anchor="start" x="401.722" y="-844.8" font-family="Times,serif" font-size="14.00">last_name :string</text>
<text text-anchor="start" x="401.722" y="-828" font-family="Times,serif" font-size="14.00">braintree_token :string</text>
<text text-anchor="start" x="401.722" y="-811.2" font-family="Times,serif" font-size="14.00">pickup_point_id :integer</text>
</g>
<!-- DeliveryPoint&#45;&gt;User -->
<g id="edge5" class="edge"><title>DeliveryPoint&#45;&gt;User</title>
<path fill="none" stroke="#18f1ca" d="M279.049,-1271.7C310.695,-1228.13 350.687,-1173.07 387.689,-1122.12"/>
<ellipse fill="none" stroke="#18f1ca" cx="276.55" cy="-1275.14" rx="4.00002" ry="4.00002"/>
<polygon fill="#18f1ca" stroke="#18f1ca" points="387.724,-1122.08 397.241,-1116.63 390.662,-1118.03 393.6,-1113.98 393.6,-1113.98 393.6,-1113.98 390.662,-1118.03 389.959,-1111.34 387.724,-1122.08 387.724,-1122.08"/>
<text text-anchor="middle" x="386.383" y="-1203.4" font-family="Times,serif" font-size="14.00">customers</text>
</g>
<!-- Ingredient -->
<g id="node6" class="node"><title>Ingredient</title>
<path fill="none" stroke="black" d="M1074.49,-1159C1074.49,-1159 1183.51,-1159 1183.51,-1159 1189.51,-1159 1195.51,-1165 1195.51,-1171 1195.51,-1171 1195.51,-1247 1195.51,-1247 1195.51,-1253 1189.51,-1259 1183.51,-1259 1183.51,-1259 1074.49,-1259 1074.49,-1259 1068.49,-1259 1062.49,-1253 1062.49,-1247 1062.49,-1247 1062.49,-1171 1062.49,-1171 1062.49,-1165 1068.49,-1159 1074.49,-1159"/>
<text text-anchor="middle" x="1129" y="-1241" font-family="Times,serif" font-size="14.00">Ingredient</text>
<polyline fill="none" stroke="black" points="1062.49,-1234.2 1195.51,-1234.2 "/>
<text text-anchor="start" x="1070.49" y="-1216.2" font-family="Times,serif" font-size="14.00">id :integer</text>
<text text-anchor="start" x="1070.49" y="-1199.4" font-family="Times,serif" font-size="14.00">name :string</text>
<text text-anchor="start" x="1070.49" y="-1182.6" font-family="Times,serif" font-size="14.00">created_at :datetime</text>
<text text-anchor="start" x="1070.49" y="-1165.8" font-family="Times,serif" font-size="14.00">updated_at :datetime</text>
</g>
<!-- Item -->
<g id="node7" class="node"><title>Item</title>
<path fill="none" stroke="black" d="M890.495,-25.8C890.495,-25.8 999.505,-25.8 999.505,-25.8 1005.51,-25.8 1011.51,-31.8 1011.51,-37.8 1011.51,-37.8 1011.51,-164.2 1011.51,-164.2 1011.51,-170.2 1005.51,-176.2 999.505,-176.2 999.505,-176.2 890.495,-176.2 890.495,-176.2 884.495,-176.2 878.495,-170.2 878.495,-164.2 878.495,-164.2 878.495,-37.8 878.495,-37.8 878.495,-31.8 884.495,-25.8 890.495,-25.8"/>
<text text-anchor="middle" x="945" y="-158.2" font-family="Times,serif" font-size="14.00">Item</text>
<polyline fill="none" stroke="black" points="878.495,-151.4 1011.51,-151.4 "/>
<text text-anchor="start" x="886.495" y="-133.4" font-family="Times,serif" font-size="14.00">id :integer</text>
<text text-anchor="start" x="886.495" y="-116.6" font-family="Times,serif" font-size="14.00">name :string</text>
<text text-anchor="start" x="886.495" y="-99.8" font-family="Times,serif" font-size="14.00">price :float</text>
<text text-anchor="start" x="886.495" y="-83" font-family="Times,serif" font-size="14.00">description :text</text>
<text text-anchor="start" x="886.495" y="-66.2" font-family="Times,serif" font-size="14.00">created_at :datetime</text>
<text text-anchor="start" x="886.495" y="-49.4" font-family="Times,serif" font-size="14.00">updated_at :datetime</text>
<text text-anchor="start" x="886.495" y="-32.6" font-family="Times,serif" font-size="14.00">vendor_id :integer</text>
</g>
<!-- Ingredient&#45;&gt;Item -->
<g id="edge8" class="edge"><title>Ingredient&#45;&gt;Item</title>
<path fill="none" stroke="#c01ea9" d="M1140.48,-1148.79C1155.25,-1067.39 1179,-916.181 1179,-786 1179,-786 1179,-786 1179,-323 1179,-234.36 1089.15,-170.716 1020.81,-135.124"/>
<polygon fill="#c01ea9" stroke="#c01ea9" points="1140.44,-1149.01 1134.21,-1158.04 1139.54,-1153.93 1138.64,-1158.85 1138.64,-1158.85 1138.64,-1158.85 1139.54,-1153.93 1143.07,-1159.66 1140.44,-1149.01 1140.44,-1149.01"/>
<polygon fill="#c01ea9" stroke="#c01ea9" points="1020.65,-135.044 1013.79,-126.492 1016.2,-132.772 1011.74,-130.5 1011.74,-130.5 1011.74,-130.5 1016.2,-132.772 1009.7,-134.509 1020.65,-135.044 1020.65,-135.044"/>
</g>
<!-- ItemOrder -->
<g id="node8" class="node"><title>ItemOrder</title>
<path fill="none" stroke="black" d="M785.433,-257.2C785.433,-257.2 904.567,-257.2 904.567,-257.2 910.567,-257.2 916.567,-263.2 916.567,-269.2 916.567,-269.2 916.567,-378.8 916.567,-378.8 916.567,-384.8 910.567,-390.8 904.567,-390.8 904.567,-390.8 785.433,-390.8 785.433,-390.8 779.433,-390.8 773.433,-384.8 773.433,-378.8 773.433,-378.8 773.433,-269.2 773.433,-269.2 773.433,-263.2 779.433,-257.2 785.433,-257.2"/>
<text text-anchor="middle" x="845" y="-372.8" font-family="Times,serif" font-size="14.00">ItemOrder</text>
<polyline fill="none" stroke="black" points="773.433,-366 916.567,-366 "/>
<text text-anchor="start" x="781.433" y="-348" font-family="Times,serif" font-size="14.00">id :integer</text>
<text text-anchor="start" x="781.433" y="-331.2" font-family="Times,serif" font-size="14.00">order_id :integer</text>
<text text-anchor="start" x="781.433" y="-314.4" font-family="Times,serif" font-size="14.00">menu_item_id :integer</text>
<text text-anchor="start" x="781.433" y="-297.6" font-family="Times,serif" font-size="14.00">quantity :integer</text>
<text text-anchor="start" x="781.433" y="-280.8" font-family="Times,serif" font-size="14.00">created_at :datetime</text>
<text text-anchor="start" x="781.433" y="-264" font-family="Times,serif" font-size="14.00">updated_at :datetime</text>
</g>
<!-- ItemOrder&#45;&gt;Item -->
<g id="edge11" class="edge"><title>ItemOrder&#45;&gt;Item</title>
<path fill="none" stroke="#9d9cdb" d="M878.269,-249.476C887.756,-228.508 898.153,-205.533 907.856,-184.089"/>
<ellipse fill="none" stroke="#9d9cdb" cx="876.517" cy="-253.348" rx="4.00002" ry="4.00002"/>
<ellipse fill="#9d9cdb" stroke="#9d9cdb" cx="909.607" cy="-180.217" rx="4.00002" ry="4.00002"/>
</g>
<!-- Menu -->
<g id="node9" class="node"><title>Menu</title>
<path fill="none" stroke="black" d="M873.495,-1304C873.495,-1304 982.505,-1304 982.505,-1304 988.505,-1304 994.505,-1310 994.505,-1316 994.505,-1316 994.505,-1392 994.505,-1392 994.505,-1398 988.505,-1404 982.505,-1404 982.505,-1404 873.495,-1404 873.495,-1404 867.495,-1404 861.495,-1398 861.495,-1392 861.495,-1392 861.495,-1316 861.495,-1316 861.495,-1310 867.495,-1304 873.495,-1304"/>
<text text-anchor="middle" x="928" y="-1386" font-family="Times,serif" font-size="14.00">Menu</text>
<polyline fill="none" stroke="black" points="861.495,-1379.2 994.505,-1379.2 "/>
<text text-anchor="start" x="869.495" y="-1361.2" font-family="Times,serif" font-size="14.00">id :integer</text>
<text text-anchor="start" x="869.495" y="-1344.4" font-family="Times,serif" font-size="14.00">date :datetime</text>
<text text-anchor="start" x="869.495" y="-1327.6" font-family="Times,serif" font-size="14.00">created_at :datetime</text>
<text text-anchor="start" x="869.495" y="-1310.8" font-family="Times,serif" font-size="14.00">updated_at :datetime</text>
</g>
<!-- Menu&#45;&gt;DeliveryArea -->
<g id="edge15" class="edge"><title>Menu&#45;&gt;DeliveryArea</title>
<path fill="none" stroke="#3c51b2" d="M926.025,-1295.75C918.992,-1105.14 892.836,-500.139 842,-430 836.674,-422.651 745.127,-384.133 676.197,-355.87"/>
<ellipse fill="none" stroke="#3c51b2" cx="926.179" cy="-1299.97" rx="4" ry="4"/>
<polygon fill="#3c51b2" stroke="#3c51b2" points="675.887,-355.743 668.337,-347.79 671.26,-353.849 666.632,-351.955 666.632,-351.955 666.632,-351.955 671.26,-353.849 664.927,-356.119 675.887,-355.743 675.887,-355.743"/>
</g>
<!-- Menu&#45;&gt;Item -->
<g id="edge14" class="edge"><title>Menu&#45;&gt;Item</title>
<path fill="none" stroke="#4192c7" d="M932.297,-1293.69C937.334,-1218.95 945,-1086.53 945,-973 945,-973 945,-973 945,-323 945,-277.991 945,-227.826 945,-186.681"/>
<polygon fill="#4192c7" stroke="#4192c7" points="932.285,-1293.86 927.116,-1303.54 931.945,-1298.85 931.605,-1303.84 931.605,-1303.84 931.605,-1303.84 931.945,-1298.85 936.095,-1304.15 932.285,-1293.86 932.285,-1293.86"/>
<polygon fill="#4192c7" stroke="#4192c7" points="945,-186.423 949.5,-176.423 945,-181.423 945,-176.423 945,-176.423 945,-176.423 945,-181.423 940.5,-176.423 945,-186.423 945,-186.423"/>
<text text-anchor="middle" x="987.766" y="-592.4" font-family="Times,serif" font-size="14.00">item_templates</text>
</g>
<!-- MenuItem -->
<g id="node10" class="node"><title>MenuItem</title>
<path fill="none" stroke="black" d="M985.495,-905.2C985.495,-905.2 1094.51,-905.2 1094.51,-905.2 1100.51,-905.2 1106.51,-911.2 1106.51,-917.2 1106.51,-917.2 1106.51,-1026.8 1106.51,-1026.8 1106.51,-1032.8 1100.51,-1038.8 1094.51,-1038.8 1094.51,-1038.8 985.495,-1038.8 985.495,-1038.8 979.495,-1038.8 973.495,-1032.8 973.495,-1026.8 973.495,-1026.8 973.495,-917.2 973.495,-917.2 973.495,-911.2 979.495,-905.2 985.495,-905.2"/>
<text text-anchor="middle" x="1040" y="-1020.8" font-family="Times,serif" font-size="14.00">MenuItem</text>
<polyline fill="none" stroke="black" points="973.495,-1014 1106.51,-1014 "/>
<text text-anchor="start" x="981.495" y="-996" font-family="Times,serif" font-size="14.00">id :integer</text>
<text text-anchor="start" x="981.495" y="-979.2" font-family="Times,serif" font-size="14.00">quantity :integer</text>
<text text-anchor="start" x="981.495" y="-962.4" font-family="Times,serif" font-size="14.00">item_id :integer</text>
<text text-anchor="start" x="981.495" y="-945.6" font-family="Times,serif" font-size="14.00">menu_id :integer</text>
<text text-anchor="start" x="981.495" y="-928.8" font-family="Times,serif" font-size="14.00">created_at :datetime</text>
<text text-anchor="start" x="981.495" y="-912" font-family="Times,serif" font-size="14.00">updated_at :datetime</text>
</g>
<!-- Menu&#45;&gt;MenuItem -->
<g id="edge13" class="edge"><title>Menu&#45;&gt;MenuItem</title>
<path fill="none" stroke="#301a6f" d="M947.409,-1296.18C951.348,-1284.26 955.388,-1271.74 959,-1260 980.907,-1188.78 1003.78,-1106.93 1019.62,-1048.91"/>
<ellipse fill="none" stroke="#301a6f" cx="946.101" cy="-1300.11" rx="4.00001" ry="4.00001"/>
<polygon fill="#301a6f" stroke="#301a6f" points="1019.66,-1048.73 1026.63,-1040.27 1020.98,-1043.91 1022.29,-1039.08 1022.29,-1039.08 1022.29,-1039.08 1020.98,-1043.91 1017.95,-1037.9 1019.66,-1048.73 1019.66,-1048.73"/>
<text text-anchor="middle" x="1001.17" y="-1203.4" font-family="Times,serif" font-size="14.00">items</text>
</g>
<!-- OrderItem -->
<g id="node17" class="node"><title>OrderItem</title>
<ellipse fill="none" stroke="black" cx="1100" cy="-598" rx="50.8818" ry="18"/>
<text text-anchor="middle" x="1100" y="-592.4" font-family="Times,serif" font-size="14.00">OrderItem</text>
</g>
<!-- MenuItem&#45;&gt;OrderItem -->
<g id="edge17" class="edge"><title>MenuItem&#45;&gt;OrderItem</title>
<path fill="none" stroke="#1048be" d="M1051.97,-896.773C1065.42,-813.395 1086.55,-682.389 1095.62,-626.138"/>
<ellipse fill="none" stroke="#1048be" cx="1051.29" cy="-900.974" rx="4.00001" ry="4.00001"/>
<polygon fill="#1048be" stroke="#1048be" points="1095.63,-626.099 1101.66,-616.943 1096.43,-621.163 1097.22,-616.227 1097.22,-616.227 1097.22,-616.227 1096.43,-621.163 1092.78,-615.51 1095.63,-626.099 1095.63,-626.099"/>
</g>
<!-- Order -->
<g id="node11" class="node"><title>Order</title>
<path fill="none" stroke="black" d="M710.705,-539.6C710.705,-539.6 821.295,-539.6 821.295,-539.6 827.295,-539.6 833.295,-545.6 833.295,-551.6 833.295,-551.6 833.295,-644.4 833.295,-644.4 833.295,-650.4 827.295,-656.4 821.295,-656.4 821.295,-656.4 710.705,-656.4 710.705,-656.4 704.705,-656.4 698.705,-650.4 698.705,-644.4 698.705,-644.4 698.705,-551.6 698.705,-551.6 698.705,-545.6 704.705,-539.6 710.705,-539.6"/>
<text text-anchor="middle" x="766" y="-638.4" font-family="Times,serif" font-size="14.00">Order</text>
<polyline fill="none" stroke="black" points="698.705,-631.6 833.295,-631.6 "/>
<text text-anchor="start" x="706.705" y="-613.6" font-family="Times,serif" font-size="14.00">id :integer</text>
<text text-anchor="start" x="706.705" y="-596.8" font-family="Times,serif" font-size="14.00">user_id :integer</text>
<text text-anchor="start" x="706.705" y="-580" font-family="Times,serif" font-size="14.00">transaction_id :string</text>
<text text-anchor="start" x="706.705" y="-563.2" font-family="Times,serif" font-size="14.00">created_at :datetime</text>
<text text-anchor="start" x="706.705" y="-546.4" font-family="Times,serif" font-size="14.00">updated_at :datetime</text>
</g>
<!-- Order&#45;&gt;ItemOrder -->
<g id="edge19" class="edge"><title>Order&#45;&gt;ItemOrder</title>
<path fill="none" stroke="#1eaee9" d="M785.014,-531.535C796.439,-492.198 811.026,-441.974 822.954,-400.904"/>
<ellipse fill="none" stroke="#1eaee9" cx="783.87" cy="-535.475" rx="4.00001" ry="4.00001"/>
<polygon fill="#1eaee9" stroke="#1eaee9" points="822.98,-400.816 830.091,-392.468 824.375,-396.014 825.769,-391.213 825.769,-391.213 825.769,-391.213 824.375,-396.014 821.448,-389.957 822.98,-400.816 822.98,-400.816"/>
</g>
<!-- PhoneNumber -->
<g id="node12" class="node"><title>PhoneNumber</title>
<path fill="none" stroke="black" d="M450.495,-9C450.495,-9 559.505,-9 559.505,-9 565.505,-9 571.505,-15 571.505,-21 571.505,-21 571.505,-181 571.505,-181 571.505,-187 565.505,-193 559.505,-193 559.505,-193 450.495,-193 450.495,-193 444.495,-193 438.495,-187 438.495,-181 438.495,-181 438.495,-21 438.495,-21 438.495,-15 444.495,-9 450.495,-9"/>
<text text-anchor="middle" x="505" y="-175" font-family="Times,serif" font-size="14.00">PhoneNumber</text>
<polyline fill="none" stroke="black" points="438.495,-168.2 571.505,-168.2 "/>
<text text-anchor="start" x="446.495" y="-150.2" font-family="Times,serif" font-size="14.00">id :integer</text>
<text text-anchor="start" x="446.495" y="-133.4" font-family="Times,serif" font-size="14.00">country :string</text>
<text text-anchor="start" x="446.495" y="-116.6" font-family="Times,serif" font-size="14.00">area :string</text>
<text text-anchor="start" x="446.495" y="-99.8" font-family="Times,serif" font-size="14.00">number :string</text>
<text text-anchor="start" x="446.495" y="-83" font-family="Times,serif" font-size="14.00">extension :string</text>
<text text-anchor="start" x="446.495" y="-66.2" font-family="Times,serif" font-size="14.00">vendor_id :integer</text>
<text text-anchor="start" x="446.495" y="-49.4" font-family="Times,serif" font-size="14.00">user_id :integer</text>
<text text-anchor="start" x="446.495" y="-32.6" font-family="Times,serif" font-size="14.00">created_at :datetime</text>
<text text-anchor="start" x="446.495" y="-15.8" font-family="Times,serif" font-size="14.00">updated_at :datetime</text>
</g>
<!-- Server -->
<g id="node13" class="node"><title>Server</title>
<path fill="none" stroke="black" d="M374.722,-430.4C374.722,-430.4 555.278,-430.4 555.278,-430.4 561.278,-430.4 567.278,-436.4 567.278,-442.4 567.278,-442.4 567.278,-753.6 567.278,-753.6 567.278,-759.6 561.278,-765.6 555.278,-765.6 555.278,-765.6 374.722,-765.6 374.722,-765.6 368.722,-765.6 362.722,-759.6 362.722,-753.6 362.722,-753.6 362.722,-442.4 362.722,-442.4 362.722,-436.4 368.722,-430.4 374.722,-430.4"/>
<text text-anchor="middle" x="465" y="-747.6" font-family="Times,serif" font-size="14.00">Server</text>
<polyline fill="none" stroke="black" points="362.722,-740.8 567.278,-740.8 "/>
<text text-anchor="start" x="370.722" y="-722.8" font-family="Times,serif" font-size="14.00">id :integer</text>
<text text-anchor="start" x="370.722" y="-706" font-family="Times,serif" font-size="14.00">role :integer</text>
<text text-anchor="start" x="370.722" y="-689.2" font-family="Times,serif" font-size="14.00">created_at :datetime</text>
<text text-anchor="start" x="370.722" y="-672.4" font-family="Times,serif" font-size="14.00">updated_at :datetime</text>
<text text-anchor="start" x="370.722" y="-655.6" font-family="Times,serif" font-size="14.00">email :string</text>
<text text-anchor="start" x="370.722" y="-638.8" font-family="Times,serif" font-size="14.00">encrypted_password :string</text>
<text text-anchor="start" x="370.722" y="-622" font-family="Times,serif" font-size="14.00">reset_password_token :string</text>
<text text-anchor="start" x="370.722" y="-605.2" font-family="Times,serif" font-size="14.00">reset_password_sent_at :datetime</text>
<text text-anchor="start" x="370.722" y="-588.4" font-family="Times,serif" font-size="14.00">remember_created_at :datetime</text>
<text text-anchor="start" x="370.722" y="-571.6" font-family="Times,serif" font-size="14.00">sign_in_count :integer</text>
<text text-anchor="start" x="370.722" y="-554.8" font-family="Times,serif" font-size="14.00">current_sign_in_at :datetime</text>
<text text-anchor="start" x="370.722" y="-538" font-family="Times,serif" font-size="14.00">last_sign_in_at :datetime</text>
<text text-anchor="start" x="370.722" y="-521.2" font-family="Times,serif" font-size="14.00">current_sign_in_ip :string</text>
<text text-anchor="start" x="370.722" y="-504.4" font-family="Times,serif" font-size="14.00">last_sign_in_ip :string</text>
<text text-anchor="start" x="370.722" y="-487.6" font-family="Times,serif" font-size="14.00">first_name :string</text>
<text text-anchor="start" x="370.722" y="-470.8" font-family="Times,serif" font-size="14.00">last_name :string</text>
<text text-anchor="start" x="370.722" y="-454" font-family="Times,serif" font-size="14.00">braintree_token :string</text>
<text text-anchor="start" x="370.722" y="-437.2" font-family="Times,serif" font-size="14.00">pickup_point_id :integer</text>
</g>
<!-- Server&#45;&gt;DeliveryArea -->
<g id="edge23" class="edge"><title>Server&#45;&gt;DeliveryArea</title>
<path fill="none" stroke="#1e9bc4" d="M551.46,-422.799C555.689,-414.278 559.81,-405.975 563.749,-398.039"/>
<ellipse fill="none" stroke="#1e9bc4" cx="549.584" cy="-426.579" rx="4.00002" ry="4.00002"/>
<ellipse fill="#1e9bc4" stroke="#1e9bc4" cx="565.535" cy="-394.441" rx="4.00002" ry="4.00002"/>
</g>
<!-- Vendor -->
<g id="node15" class="node"><title>Vendor</title>
<path fill="none" stroke="black" d="M355.495,-265.6C355.495,-265.6 464.505,-265.6 464.505,-265.6 470.505,-265.6 476.505,-271.6 476.505,-277.6 476.505,-277.6 476.505,-370.4 476.505,-370.4 476.505,-376.4 470.505,-382.4 464.505,-382.4 464.505,-382.4 355.495,-382.4 355.495,-382.4 349.495,-382.4 343.495,-376.4 343.495,-370.4 343.495,-370.4 343.495,-277.6 343.495,-277.6 343.495,-271.6 349.495,-265.6 355.495,-265.6"/>
<text text-anchor="middle" x="410" y="-364.4" font-family="Times,serif" font-size="14.00">Vendor</text>
<polyline fill="none" stroke="black" points="343.495,-357.6 476.505,-357.6 "/>
<text text-anchor="start" x="351.495" y="-339.6" font-family="Times,serif" font-size="14.00">id :integer</text>
<text text-anchor="start" x="351.495" y="-322.8" font-family="Times,serif" font-size="14.00">name :string</text>
<text text-anchor="start" x="351.495" y="-306" font-family="Times,serif" font-size="14.00">email :string</text>
<text text-anchor="start" x="351.495" y="-289.2" font-family="Times,serif" font-size="14.00">created_at :datetime</text>
<text text-anchor="start" x="351.495" y="-272.4" font-family="Times,serif" font-size="14.00">updated_at :datetime</text>
</g>
<!-- Server&#45;&gt;Vendor -->
<g id="edge22" class="edge"><title>Server&#45;&gt;Vendor</title>
<path fill="none" stroke="#36853d" d="M429.275,-420.325C427.331,-410.707 425.446,-401.389 423.666,-392.587"/>
<polygon fill="#36853d" stroke="#36853d" points="429.282,-420.361 426.854,-431.054 430.273,-425.261 431.264,-430.162 431.264,-430.162 431.264,-430.162 430.273,-425.261 435.675,-429.27 429.282,-420.361 429.282,-420.361"/>
<polygon fill="#36853d" stroke="#36853d" points="423.61,-392.307 426.039,-381.613 422.619,-387.406 421.628,-382.505 421.628,-382.505 421.628,-382.505 422.619,-387.406 417.217,-383.397 423.61,-392.307 423.61,-392.307"/>
</g>
<!-- User&#45;&gt;CreditCard -->
<g id="edge26" class="edge"><title>User&#45;&gt;CreditCard</title>
<path fill="none" stroke="#bc392f" d="M389.033,-815.391C381.602,-804.75 374.205,-794.206 367,-784 361.309,-775.938 358.957,-774.533 354,-766 338.756,-739.76 324.333,-709.922 312.231,-682.799"/>
<ellipse fill="none" stroke="#bc392f" cx="391.374" cy="-818.747" rx="4.00002" ry="4.00002"/>
<polygon fill="#bc392f" stroke="#bc392f" points="312.088,-682.476 312.166,-671.511 310.069,-677.902 308.049,-673.328 308.049,-673.328 308.049,-673.328 310.069,-677.902 303.933,-675.146 312.088,-682.476 312.088,-682.476"/>
</g>
<!-- User&#45;&gt;Order -->
<g id="edge27" class="edge"><title>User&#45;&gt;Order</title>
<path fill="none" stroke="#022198" d="M603.346,-823.102C643.186,-768.211 686.383,-708.695 718.241,-664.801"/>
<ellipse fill="none" stroke="#022198" cx="600.81" cy="-826.595" rx="4.00002" ry="4.00002"/>
<polygon fill="#022198" stroke="#022198" points="718.382,-664.607 727.898,-659.157 721.319,-660.56 724.256,-656.514 724.256,-656.514 724.256,-656.514 721.319,-660.56 720.614,-653.871 718.382,-664.607 718.382,-664.607"/>
</g>
<!-- User&#45;&gt;PhoneNumber -->
<g id="edge25" class="edge"><title>User&#45;&gt;PhoneNumber</title>
<path fill="none" stroke="#c5dd87" d="M569.031,-796.347C571.751,-786.184 574.114,-776.023 576,-766 603.621,-619.243 643.612,-563.15 576,-430 563.04,-404.478 537.788,-417.085 524,-392 492.316,-334.356 487.975,-260.215 491.345,-201.328"/>
<ellipse fill="none" stroke="#c5dd87" cx="567.95" cy="-800.261" rx="4.00001" ry="4.00001"/>
<ellipse fill="#c5dd87" stroke="#c5dd87" cx="491.614" cy="-197.116" rx="4" ry="4"/>
</g>
<!-- User&#45;&gt;Server -->
<g id="edge24" class="edge"><title>User&#45;&gt;Server</title>
<path fill="none" stroke="black" d="M482.109,-804.314C481.038,-791.459 479.957,-778.48 478.886,-765.626"/>
</g>
<!-- Vendor&#45;&gt;Address -->
<g id="edge31" class="edge"><title>Vendor&#45;&gt;Address</title>
<path fill="none" stroke="#59e41f" d="M336.478,-274.497C283.796,-239.743 212.777,-192.892 158.049,-156.787"/>
<ellipse fill="none" stroke="#59e41f" cx="340.075" cy="-276.871" rx="4.00002" ry="4.00002"/>
<ellipse fill="#59e41f" stroke="#59e41f" cx="154.457" cy="-154.418" rx="4.00002" ry="4.00002"/>
<text text-anchor="middle" x="293.993" y="-223.4" font-family="Times,serif" font-size="14.00">address</text>
</g>
<!-- Vendor&#45;&gt;Item -->
<g id="edge29" class="edge"><title>Vendor&#45;&gt;Item</title>
<path fill="none" stroke="#449ac6" d="M483.95,-276.948C497.073,-269.527 510.775,-262.242 524,-256 640.732,-200.901 782.922,-152.556 868.584,-125.341"/>
<ellipse fill="none" stroke="#449ac6" cx="480.198" cy="-279.094" rx="4.00002" ry="4.00002"/>
<polygon fill="#449ac6" stroke="#449ac6" points="868.697,-125.305 879.589,-126.58 873.465,-123.797 878.232,-122.289 878.232,-122.289 878.232,-122.289 873.465,-123.797 876.875,-117.999 868.697,-125.305 868.697,-125.305"/>
</g>
<!-- Vendor&#45;&gt;PhoneNumber -->
<g id="edge30" class="edge"><title>Vendor&#45;&gt;PhoneNumber</title>
<path fill="none" stroke="#6213c3" d="M437.887,-258.125C445.654,-240.057 454.269,-220.016 462.667,-200.481"/>
<ellipse fill="none" stroke="#6213c3" cx="436.292" cy="-261.837" rx="4.00002" ry="4.00002"/>
<ellipse fill="#6213c3" stroke="#6213c3" cx="464.292" cy="-196.699" rx="4.00002" ry="4.00002"/>
</g>
<!-- ActiveRecord::Base -->
<g id="node16" class="node"><title>ActiveRecord::Base</title>
<ellipse fill="none" stroke="black" cx="671" cy="-1511" rx="88.2033" ry="18"/>
<text text-anchor="middle" x="671" y="-1505.4" font-family="Times,serif" font-size="14.00">ActiveRecord::Base</text>
</g>
<!-- ActiveRecord::Base&#45;&gt;Address -->
<g id="edge1" class="edge"><title>ActiveRecord::Base&#45;&gt;Address</title>
<path fill="none" stroke="black" d="M641.056,-1493.84C622.123,-1484.47 596.812,-1473.48 573,-1468 408.226,-1430.09 359.735,-1478.05 193,-1450 161.934,-1444.77 153.02,-1444.4 125,-1430 76.841,-1405.26 29,-1409.14 29,-1355 29,-1355 29,-1355 29,-323 29,-282.732 36.4104,-239.186 45.2826,-201.481"/>
</g>
<!-- ActiveRecord::Base&#45;&gt;CreditCard -->
<g id="edge2" class="edge"><title>ActiveRecord::Base&#45;&gt;CreditCard</title>
<path fill="none" stroke="black" d="M637.634,-1494.21C572.228,-1461.22 428.219,-1378.16 367,-1260 266.857,-1066.71 265.801,-800.834 272.305,-673.224"/>
</g>
<!-- ActiveRecord::Base&#45;&gt;DeliveryArea -->
<g id="edge4" class="edge"><title>ActiveRecord::Base&#45;&gt;DeliveryArea</title>
<path fill="none" stroke="black" d="M663.852,-1492.67C652.845,-1464.38 633,-1406.26 633,-1355 633,-1355 633,-1355 633,-597 633,-526.242 621.858,-445.879 612.523,-390.962"/>
</g>
<!-- ActiveRecord::Base&#45;&gt;DeliveryPoint -->
<g id="edge7" class="edge"><title>ActiveRecord::Base&#45;&gt;DeliveryPoint</title>
<path fill="none" stroke="black" d="M640.566,-1493.87C621.659,-1484.65 596.549,-1473.78 573,-1468 471.703,-1443.12 436.049,-1488.23 339,-1450 324.857,-1444.43 311.064,-1436.57 298.177,-1427.73"/>
</g>
<!-- ActiveRecord::Base&#45;&gt;Ingredient -->
<g id="edge9" class="edge"><title>ActiveRecord::Base&#45;&gt;Ingredient</title>
<path fill="none" stroke="black" d="M756.841,-1506.61C854.79,-1501.03 1007,-1486.58 1050,-1450 1105.96,-1402.39 1122.51,-1314.34 1127.27,-1259.15"/>
</g>
<!-- ActiveRecord::Base&#45;&gt;Item -->
<g id="edge10" class="edge"><title>ActiveRecord::Base&#45;&gt;Item</title>
<path fill="none" stroke="black" d="M752.447,-1503.87C904.654,-1490.16 1217,-1450.4 1217,-1355 1217,-1355 1217,-1355 1217,-323 1217,-217.435 1092.06,-153.449 1011.54,-123.172"/>
</g>
<!-- ActiveRecord::Base&#45;&gt;ItemOrder -->
<g id="edge12" class="edge"><title>ActiveRecord::Base&#45;&gt;ItemOrder</title>
<path fill="none" stroke="black" d="M681.878,-1492.88C691.424,-1477.11 704.997,-1452.79 713,-1430 812.594,-1146.35 812.183,-1065.15 842,-766 855.213,-633.435 851.851,-477.345 848.341,-390.95"/>
</g>
<!-- ActiveRecord::Base&#45;&gt;Menu -->
<g id="edge16" class="edge"><title>ActiveRecord::Base&#45;&gt;Menu</title>
<path fill="none" stroke="black" d="M730.117,-1497.53C765.252,-1488.23 809.535,-1473.09 844,-1450 862.29,-1437.75 879.108,-1420.57 892.814,-1404.19"/>
</g>
<!-- ActiveRecord::Base&#45;&gt;MenuItem -->
<g id="edge18" class="edge"><title>ActiveRecord::Base&#45;&gt;MenuItem</title>
<path fill="none" stroke="black" d="M747.403,-1501.79C834.743,-1490.73 969.932,-1467.93 1003,-1430 1052.43,-1373.3 1049.04,-1151.23 1043.88,-1038.87"/>
</g>
<!-- ActiveRecord::Base&#45;&gt;Order -->
<g id="edge20" class="edge"><title>ActiveRecord::Base&#45;&gt;Order</title>
<path fill="none" stroke="black" d="M675.663,-1492.79C678.736,-1480.86 682.618,-1464.57 685,-1450 733.433,-1153.77 755.895,-794.446 763.192,-656.616"/>
</g>
<!-- ActiveRecord::Base&#45;&gt;PhoneNumber -->
<g id="edge21" class="edge"><title>ActiveRecord::Base&#45;&gt;PhoneNumber</title>
<path fill="none" stroke="black" d="M671,-1492.8C671,-1464.2 671,-1405.05 671,-1355 671,-1355 671,-1355 671,-784 671,-725.332 698.782,-309.632 675,-256 653.853,-208.31 609.833,-169.102 571.887,-142.183"/>
</g>
<!-- ActiveRecord::Base&#45;&gt;User -->
<g id="edge28" class="edge"><title>ActiveRecord::Base&#45;&gt;User</title>
<path fill="none" stroke="black" d="M652.674,-1493.25C641.427,-1482.03 627.582,-1466.36 619,-1450 568.286,-1353.35 537.567,-1234.52 519.512,-1139.64"/>
</g>
<!-- ActiveRecord::Base&#45;&gt;Vendor -->
<g id="edge32" class="edge"><title>ActiveRecord::Base&#45;&gt;Vendor</title>
<path fill="none" stroke="black" d="M641.002,-1494.07C622.049,-1484.79 596.735,-1473.8 573,-1468 525.332,-1456.35 165.918,-1466.39 133,-1430 123.738,-1419.76 124.804,-500.381 173,-430 211.586,-373.653 287.703,-347.213 343.299,-335.023"/>
</g>
</g>
</svg>
